<svg xmlns="http://www.w3.org/2000/svg" width="1380" height="400" fill-rule="evenodd"><path d="M50 200v70h360V130H50v70m81.333-19.667v11.334H123V197h28v11.333h4.167c3.736 0 4.17.06 4.193.584a2236.56 2236.56 0 0 1 .001 21.671c-.022.332-2.402.402-11.278.333l-11.25-.088V208.5l8.5-.187V203H123v5.333h8.333V231h-22.666v-22.667H117V203H94.667v5.333h8.666v22.676l-22.78-.176.03-10.916.056-11.25c.018-.203 1.66-.334 4.195-.334H89V197h28v-5.333h-8.333V169h22.666v11.333m-16.918-.583c-.014 2.796.035 5.31.1 5.59.115.423 9.04.726 10.845.368.112-.022.197-2.515.2-5.54l-.013-5.5h-11.105l-.027 5.083m84.542 5.434c1.998.696 3.172 1.33 4.9 2.658.967.738 1.682 1.056 2.058.915.512-.19.522-.15.096.373-.28.344-.35.68-.166.812.17.124.352.6.4 1.058s.32 1.006.604 1.218c.335.25.4.46.16.604-.328.202-.18 1.57.253 2.325.273.477.132 4.534-.205 5.853-.848 3.33-4.817 8.14-5.858 7.098-.36-.36-.228-.765.25-.765.756 0 3.584-3.097 3.11-3.407-.294-.192-.21-.422.307-.845.77-.63 1.605-2.043 1.354-2.294-.086-.085-.436.2-.78.612s-1.334 1.34-2.204 2.04c-.968.778-1.582 1.54-1.582 1.962 0 .65.05.64.878-.19.484-.483 1.115-.88 1.402-.88.653 0-2 2.533-2.977 2.843-.393.125-.61.41-.513.667.095.247.337 1.058.537 1.803s.525 1.354.72 1.354.264.242.15.537c-.147.384-.063.482.298.344.327-.125.504.004.504.37 0 1.063 1.576 2.063 2.73 1.732 1.424-.41 1.446-.453 1.36-2.76-.09-2.466.327-3.396 1.082-2.407 1.917 2.512-1.757 8.186-5.3 8.186-3.247 0-6.207-2.553-6.207-5.352v-1.315l-1.75-.003c-3.222-.006-8.916-3.748-9.123-5.997-.025-.275-.3-1.463-.6-2.64s-.577-2.565-.59-3.083c-.017-.584-.21-.943-.504-.943-.263 0-.422-.113-.355-.25.682-1.402.986-2.217 1.495-4.015 1.722-6.076 8.626-10.11 14.062-8.218m90.043.34c.458.237 1.253.83 1.767 1.316 1.282 1.214 1.904.833 2.72-1.665.454-1.39.783.312.83 4.293l.115 4.83c.154 1.872-.68.903-1.04-1.208-.56-3.296-.416-3.023-2.993-5.627-3.563-3.602-8.692-1.764-9.208 3.298l-.33 3.237c-.785 7.704.442 13.946 2.978 15.15 4.844 2.298 10.368-.977 9.8-5.816-.253-2.186.103-3.432.93-3.263 1.356.277.22 5.543-1.755 8.132-2.586 3.39-10.73 2.824-14.507-1.01-.79-.803-1.638-1.384-1.88-1.29-.25.096-.442-.055-.442-.347 0-.284-.3-1.013-.643-1.62-.51-.872-1.314-5.374-1.12-6.27a63.94 63.94 0 0 0 .211-1.167c1.352-7.714 9.29-13.7 14.553-10.975m55.034-.13c.28.524.318 1.958.137 5.083-.855 14.683-.426 18.37 2.162 18.556 2.4.175 3 .01 3.38-.952.46-1.157.653-8.023.233-8.283-.188-.115-.192-.348-.01-.58.484-.62.695-1.87.352-2.08-.173-.107-.23-.467-.124-.8.305-.96-.7-1.673-2.354-1.673-3.094 0-1.305-.59 2.273-.75 4.425-.197 4.368-.232 4.372 2.658.001 1.24.153 2.358.336 2.482.217.147.203.38-.042.676-.217.26-.42 2.118-.48 4.387-.118 4.474.255 5.212 2.628 5.212.707 0 1.11.146 1.033.374-.084.25-1.926.403-5.61.462l-8.8.16-3.323.07.202-2.796-1.23 1.363c-2.24 2.48-6.18 2.587-7.408.2-.283-.55-.998-1.6-1.588-2.334s-1.008-1.512-.93-1.73-.003-.93-.183-1.58c-.208-.752-.21-1.255-.008-1.38.176-.108.242-.447.147-.752s-.035-.776.134-1.044c.184-.294.185-.635.004-.854-.415-.5 2.517-4.01 4.198-5.03 1.984-1.2 3.908-1.094 5.17.287l.99 1.083-.203-2.063a108.14 108.14 0 0 1-.315-4.332l-.16-2.84c-.04-.463-.458-.587-2.25-.667-4.114-.183-2.79-.836 1.78-.876 2.324-.02 4.305-.117 4.4-.213.347-.347.714-.162 1.098.554m-108.815.46c1.534 1.535.2 4.43-1.807 3.926-2.063-.517-2.68-2.258-1.388-3.903.884-1.123 2.086-1.132 3.195-.023m26.87 7.645c-.043 4.675.044 8.5.192 8.5s1.42-1.183 2.828-2.628c3.06-3.145 3.31-4.1 1.308-4.93-1.755-.737-.54-1.176 2.715-.98l3.638.174c1.396.034 1.417.697.022.697-1.198 0-2.062.52-4.01 2.41l-1.717 1.668.967 2.044c.53 1.124.967 2.234.967 2.467s.35.983.78 1.667.93 1.693 1.11 2.243c.374 1.14 2.172 2.5 3.306 2.5.7 0 1.53.635.907.69-1.743.158-8.77.085-8.77-.09 0-.128.263-.4.584-.602.395-.25.455-.424.185-.54-.22-.092-.314-.388-.21-.656s-.194-1.046-.66-1.728-1.097-1.772-1.4-2.42c-.964-2.058-2.895-1.552-2.57.674.106.72.277.91.7.76.487-.177.483-.124-.034.466-1.138 1.3-.15 3.447 1.586 3.447.607 0 .758.134.604.537-.18.464-.68.51-3.74.332-1.943-.112-4.125-.063-4.85.1s-1.45.23-1.62.126c-.455-.282.478-.76 1.494-.766 1.8-.01 1.992-.614 1.782-5.588-.104-2.477-.274-4.64-.378-4.81s-.043-.485.135-.706.333-2.837.345-5.812c.025-6.014-.043-6.225-2.146-6.62-2.346-.44-.444-1 3.702-1.088l2.334-.05-.078 8.5m91.797-7.645c1.534 1.535.2 4.43-1.808 3.926-2.062-.517-2.68-2.258-1.387-3.903.884-1.123 2.086-1.132 3.195-.023m-159.768.042c-.712.14-2.153 1.436-1.595 1.436.16 0-.04.234-.45.52-.774.543-1.048 1.353-.324.962.23-.124-.052.232-.624.79l-1.04 1.016-.06 5.7c-.037 3.5.064 5.69.264 5.69.178 0 .282.525.23 1.167s.036 1.166.194 1.166.287.27.287.6c0 1.593 1.148 2.95 1.255 1.483.232-3.184 5.63-3.548 7.478-.504l.52.858.402-.75c.22-.414.464-1.3.54-1.97s.21-1.54.302-1.933c.107-.464-.026-.788-.378-.924-.5-.19-.5-.255-.005-.802.782-.865.428-6.106-.623-9.2-.287-.846-.43-1.686-.32-1.865.283-.46-.3-.408-.765.067-.217.217-.5.29-.626.164s.058-.457.41-.733c.603-.472.582-.49-.358-.287-.823.177-.926.136-.583-.228 1.478-1.572-1.008-3.024-4.132-2.413m169.725 2.516l.114 3.79.043 1.37 2.185.176c3.47.278 3.286 1.234-.24 1.244l-1.887.005-.14 2.083c-.467 6.96.257 11.313 1.987 11.95 1.4.516 1.868-.46 1.684-3.515-.176-2.943-.085-3.517.563-3.517 1.033 0 1.326 1.948.68 4.538-.735 2.95-1.325 3.462-3.995 3.462-3.776 0-4.747-2.05-4.697-9.917.013-2.062-.084-3.75-.216-3.75s-.153-.225-.048-.5c.15-.386-.076-.5-1-.5-1.43 0-1.886-.546-.826-1 2.792-1.168 4.45-3.31 4.796-6.19.4-3.423.878-3.3.984.26m-162.216-.83c-.022.138-.015.38.014.54s-.178.202-.46.094c-.32-.123-.513-.01-.513.3 0 .437.125.433 1.01-.025.556-.287.922-.666.813-.842-.234-.378-.808-.424-.864-.07m32.52.24c-.495.374-.53.493-.147.505.444.014.444.05 0 .34-.43.277-.42.324.072.328s1.26-.894 1.26-1.473c0-.334-.522-.202-1.186.3m118.667 0c-.495.374-.53.493-.147.505.444.014.444.05 0 .34-.43.277-.42.324.07.328S354 188.1 354 187.522c0-.334-.522-.202-1.186.3m-10.628.704c-.746.545-1.32.626-1.022.143.117-.188-.017-.244-.313-.13-.285.1-.518.342-.518.516s.188.212.417.082c.333-.188.333-.145 0 .214-.585.63-.52.84.258.84.47 0 .616-.156.48-.51-.156-.41-.112-.43.225-.096.497.494 1.286.552 1.286.094 0-.177-.225-.236-.5-.13-.684.263-.63-.2.083-.732.32-.234.508-.5.416-.593s-.458.046-.813.306m-153.92 1.56c-.863.58-1.513 1.1-1.445 1.18s-.2.45-.598.846l-.722.722 1.603.227-.81.72c-.444.396-.662.607-.484.47.513-.397.92-.3.64.167-.14.23.113.152.563-.172a14.83 14.83 0 0 1 1.569-.97c.812-.413 1.05-1.036.284-.742-.256.1-.555.036-.663-.14s.114-.4.493-.5c.503-.13.662-.4.584-.99-.058-.446.098-1.057.347-1.358.62-.746.45-.68-1.363.54m14.104-.12c-.907.847-1.347 1.7-.88 1.7.616 0 3.115-2.167 2.76-2.392-.63-.4-.764-.352-1.88.692m57.865.416c-.886.66-.905.727-.365 1.323.334.37.41.627.183.627-.212 0-.385.146-.385.323s.25.227.554.1c.373-.143.476-.085.314.177-.363.588-.013.468.508-.174.3-.383.323-.483.04-.313-.515.31-.528.05-.042-.895.308-.6.296-.654-.067-.31-.828.783-1.02.418-.307-.583.838-1.178.8-1.203-.433-.284m81.448.194c-.916.36-1.653 1.264-1.385 1.697.205.333.354.313.7-.092.235-.283.297-.52.137-.523s.084-.3.543-.66c.856-.67.86-.755.015-.423m-63.682.6c-.287.345-.3.5-.04.5.206 0 .374-.16.374-.353s.15-.26.334-.147.333.047.333-.147c0-.5-.518-.434-1 .147m-90.417 1.25c-.046.23.138.368.408.308.366-.08.33.068-.135.584-.344.38-.8.69-.99.686s-.156-.138.1-.3.38-.52.273-.795-.102-.59.007-.7c.312-.31.43-.236.338.218m153.982.108c.218.1.315.4.214.663-.21.546.16.613.878.158.585-.37.454-.528-.657-.802-.458-.112-.654-.12-.435-.02m-138.982.666c-1.246.676-1.17.957.084.31.55-.284 1-.588 1-.675 0-.215-.036-.203-1.084.366m159.25-.21c-.706.29-2.21 1.8-1.657 1.655.178-.044.75.04 1.274.186l.95.266-.95.777c-1.216.994-.787 1.025.717.05 1.228-.796 1.56-1.373.583-1.017-.51.186-.498.113.083-.57l.667-.784-.824.56c-.99.673-1.57.735-1.053.113.204-.246.26-.57.124-.72s-.01-.188.28-.085c.32.114.528.004.528-.28 0-.258-.013-.46-.028-.447s-.328.144-.695.294m-136.718 1.015c.303.607.372 1.075.175 1.196s-.186.364.043.64c.214.258.24.52.06.63-.17.104-.286 2.546-.26 5.446.056 6.194.266 6.852 2.142 6.713.877-.065 1.198.035 1.13.35-.062.284.095.367.444.234a3.95 3.95 0 0 1 1.189-.208c1.162 0 2.317-8.536 1.244-9.2-.187-.115-.192-.348-.01-.58.484-.62.696-1.87.353-2.08-.174-.107-.23-.467-.124-.8.304-.96-.7-1.673-2.355-1.673-3.093 0-1.305-.59 2.274-.75 4.425-.197 4.367-.232 4.37 2.658.002 1.24.153 2.358.336 2.482.218.147.203.38-.042.676-.216.26-.42 2.118-.478 4.387-.118 4.474.254 5.212 2.627 5.212.7 0 1.11.146 1.033.376-.157.47-11.022.516-11.178.048-.06-.175-1.56-.268-3.43-.21l-3.324.1v-2.778l-1.083 1.026c-2.546 2.4-6.502 2.17-7.66-.462-.226-.513-.61-1.058-.852-1.2-.292-.182-.334-.4-.124-.667.175-.214.252-.84.172-1.39-.148-1.01-.153-3.486-.013-6.084.052-.966-.06-1.416-.35-1.416-.498 0-.567-.54-.106-.825.592-.366-.05-1.175-.938-1.18-1.007-.006-1.974-.514-1.63-.856.126-.127 1.772-.298 3.657-.38l3.426-.15.005 6.445c.005 8.067.158 8.946 1.55 8.946 1.144 0 3.844-2.355 3.444-3.003-.123-.198-.04-.578.18-.845.328-.395.3-.486-.205-.486-.472 0-.518-.09-.207-.4.616-.616.545-7.74-.084-8.37-.266-.266-.39-.576-.278-.7s-.185-.206-.663-.206c-.973 0-1.542-.61-.926-1 .22-.136 1.55-.278 2.95-.315s2.616-.134 2.697-.215c.245-.244.302-.185.818.85m26.187.308c3.11 2.338 2.922 6.695-.292 6.695-2.508 0-2.877-2.674-.605-4.387l.757-.57-.698-.938c-1.202-1.617-4.797-1.127-4.797.654 0 .17-.255.846-.567 1.503-.43.904-.467 1.228-.153 1.332.286.096.3.264.076.546-.5.602-.274 6.05.247 5.942.286-.06.343.184.188.8-.17.678-.12.822.213.617.326-.202.384-.078.234.495-.295 1.13 1.35 2.674 2.847 2.674 1.783 0 3.9-2.114 3.956-3.95.023-.762.08-1.535.125-1.718a6.74 6.74 0 0 0 .125-.667c.075-.596 1.373-.366 1.412.25.43 6.805-9.034 9.386-13.113 3.576-3.245-4.62.043-12.76 5.5-13.64 2.996-.483 2.798-.517 4.535.787m69.83-.94c3.053.848 4.933 3.382 4.985 6.72.034 2.156-.158 2.238-5.235 2.244l-4.284.005.188 2.032c.398 4.297 2.058 5.858 5.1 4.795 2.348-.82 3.167-1.843 3.23-4.037.035-1.2.178-1.623.548-1.623.868 0 .552 2.983-.455 4.304-1.672 2.192-6.027 3.456-8.26 2.397-1.54-.73-4.48-3.562-4.098-3.944.073-.074-.15-.91-.5-1.86s-.512-1.8-.366-1.89.368-1.13.495-2.314c.13-1.2.44-2.325.706-2.546s.476-.59.476-.828c0-2.045 4.703-4.22 7.466-3.454m-117.553.76c-1.57.964-1.815 1.21-1.22 1.208.26-.001.997-.45 1.64-1 1.392-1.19 1.274-1.25-.42-.208m74.67-.268c-1.292.7-1.146.943.167.276 1.256-.64 1.48-.805 1.055-.786-.168.007-.718.237-1.222.5m25.75.17c0 .382.113.644.252.583 3.614-1.596 4.536-1.522 5.748.466 1.634 2.68-1.417 5.45-3.328 3.02-.84-1.07-.674-2.302.432-3.174.725-.572.725-.576.035-.583-.382-.004-1.28.497-1.993 1.115l-1.3 1.122-.007 3.378c-.005 2.682.1 3.377.462 3.377s.354.126-.084.6c-.657.726-.707 1.282-.135 1.475.326.1.317.26-.037.69-1.204 1.457.317 3.707 2.364 3.497 1.195-.122 1.692.62.526.785-1.605.228-11.103-.236-11.103-.542 0-.174.675-.485 1.5-.69 1.078-.268 1.474-.523 1.408-.908-.05-.294.062-.63.25-.747.45-.277.443-2.403-.007-2.682-.24-.148-.23-.362.035-.68.212-.255.415-1.4.452-2.566s.18-2.284.318-2.507.087-.404-.114-.404c-.257 0-.263-.2-.02-.643.625-1.17-.804-3.357-2.192-3.357-.79 0-1.492-.655-.732-.683 2.068-.077 5.797-.4 5.91-.512.44-.44 1.36-.065 1.36.556m-116.456.52c-.708.464-1.363 1.13-1.455 1.48s-.308.638-.48.638-.207-.174-.076-.385c.15-.244.09-.294-.163-.137-.31.19-.302.37.03.782.277.342.292.45.04.298-.217-.13-.482-.094-.59.08s-.04.41.15.528.27.332.18.477c-.362.586 1.083.13 2.57-.8 1.517-.96 2.33-1.976.875-1.095l-1.298.775a14.13 14.13 0 0 0-1.209.82c-.34.26-.183-.003.35-.586.862-.944.905-1.086.385-1.285-.472-.18-.29-.407.947-1.177 1.44-.896 1.86-1.31 1.28-1.266-.137.01-.83.4-1.54.863m131.383-.014c-.892.468-1.39 1.317-1.075 1.828.103.167.065.304-.085.304-.53 0-1.042 1.248-1.275 3.113l-.235 1.887h2.87c3.456 0 3.275.425 2.428-5.7-.23-1.67-1.183-2.2-2.63-1.433m23.15-.3c-.415.08-.675.274-.578.43s.025.38-.16.496-.34.02-.34-.2c0-.334-.084-.335-.414-.006-.813.814.43 1.062 1.468.294.7-.525 1.408-1.493.863-1.196-.046.025-.423.11-.84.19m-6.848.816c-1.324 2.097-2.022 10.623-.957 11.688.188.188.26.556.16.818-.272.708 1.2 2.11 2.23 2.11 1.92 0 3.34-2.426 3.358-5.734.03-5.497-.958-9.255-2.44-9.27-.227-.002-.737-.092-1.134-.198-.524-.14-.857.02-1.215.588m-129.795.466l-.935.85 1.083-.527c.596-.29 1.084-.672 1.084-.85 0-.492-.21-.402-1.232.527m29.232-.487c0 .447-1.19 2-1.385 1.806-.077-.077-.324.153-.547.51-.337.54-.32.652.096.652.276 0 .502-.166.502-.37s.224-.283.496-.18.48.084.46-.047c-.1-.605.078-.866.316-.49.156.245.275-.13.293-.917.016-.732-.03-1.33-.102-1.33s-.13.164-.13.364m41.333.32l-.833.668.916-.396c.505-.217.917-.522.917-.676 0-.38-.046-.36-1 .404m39.62-.028c-.433.36-.668.66-.523.667s.586-.29.98-.656c.922-.86.572-.868-.457-.01m37.713-.29c0 .447-1.2 2-1.385 1.806-.077-.077-.323.153-.547.51-.336.54-.32.652.096.652.277 0 .503-.166.503-.37s.223-.283.496-.18.48.084.46-.047c-.09-.605.078-.866.316-.49.156.245.275-.13.292-.917.016-.732-.03-1.33-.1-1.33s-.13.164-.13.364m-165.27.49c-.24.272-.615.394-.833.272-.29-.164-.3-.117-.03.175.397.43 2.134-.128 2.134-.687 0-.45-.794-.3-1.27.24m14.854.733c-.505.312-.917.76-.917.993 0 .242.432.04 1-.465 1.415-1.26 1.387-1.44-.083-.528m98.706.163c-.25.465-.454.59-.54.33-.144-.432-.75-.248-.75.227 0 .524 1.18.18 1.918-.557.54-.54.612-.75.26-.75-.27 0-.67.337-.89.75m21.114-.214c-.353.382-.342.465.064.465.566 0 1.002-.545.62-.776-.14-.085-.45.055-.685.31m-62.943.548c-.714.817-1.113 2.82-.484 2.43.202-.125.272-.382.155-.57-.138-.223.024-.217.46.016.532.285.766.24 1.123-.216.408-.52.396-.533-.13-.12-.734.575-.763.126-.043-.67.525-.58.436-1.622-.14-1.622-.157 0-.58.338-.94.75m49.446-.37c-.323.18-.507.46-.408.618s.026.384-.16.5-.343.013-.35-.227c-.006-.258-.154-.188-.364.172-.787 1.354.667 1.106 1.567-.268.65-.993.553-1.265-.286-.795m-105.034.932c-1.63.93-2.855 2.25-1.662 1.793.315-.12.808-.423 1.097-.67s.976-.817 1.526-1.265c1.28-1.042 1.06-1.01-.96.143m56.628-.646c-.112.182-.534.504-.936.715-.726.38-.727.38-.096-.33.636-.717 1.418-1.007 1.032-.384m15.333.668c-.692.55-1.097 1-.9 1s.46-.162.582-.36.694-.648 1.27-1 .88-.64.676-.64-.937.448-1.63.998m-70.172.016c-.456.35-.67.64-.475.644.48.01 1.687-.897 1.474-1.1-.094-.094-.543.116-1 .466m70.754.727c-.962.59-1.75 1.185-1.75 1.32 0 .27 3.272-1.692 3.538-2.123s.076-.343-1.79.804m-64.082-.357c0 .176.187.21.416.077s.13.082-.218.48c-.412.47-.487.724-.214.724.237 0 .337.218.228.5-.254.664-.13.632.82-.208l.8-.707-.833.214c-.752.193-.774.173-.22-.21l1.11-.773c.39-.274.24-.357-.695-.384-.657-.018-1.195.1-1.195.286m30.055.39c-.4.426-.65.852-.556.947s-.13.444-.497.776c-.74.67-.943 1.478-.222.88.246-.204.56-.26.695-.124s.197.042.136-.208.165-.502.503-.56c.747-.125.743-.12 1.055-1.152.245-.808.233-.816-.4-.25-.994.886-1.324.696-.435-.25.43-.46.708-.834.616-.834s-.494.35-.894.775m72.12-.425c.106.17-.005.234-.245.142-.94-.36-1.772 2.56-.925 3.247.798.646 1.516.765 1.804.3.1-.163-.003-.29-.23-.28-1.794.065-1.93-.787-.22-1.383.535-.186.973-.515.973-.73 0-.277-.17-.26-.583.06-.556.43-.556.42 0-.236.764-.9.737-1.314-.09-1.377-.37-.027-.588.09-.483.26m-92.148.618c-.69.367-.962.666-.69.756.303.1.348.304.14.63-.388.607-.433 1.98-.065 1.98.152 0 .14.262-.026.583-.738 1.42-.238 2.264 1.05 1.773.516-.196 1.045-.356 1.176-.356s.18-.6.11-1.334c-.108-1.133-.723-1.983-.723-1 0 .184-.246.334-.545.334-.406 0-.33-.17.294-.66.64-.503.843-.98.857-2 .02-1.52-.018-1.537-1.578-.706m28.894.032c-.23.367-.614.667-.856.667-.247 0-.335-.168-.2-.385.144-.233.092-.294-.133-.156-.354.22-.196 1.208.194 1.208.103 0 .488-.263.854-.584.634-.555.656-.555.453 0-.117.32-.092.584.055.584.54 0 .695-.452.314-.912-.306-.368-.287-.54.086-.775.328-.208.348-.305.064-.308-.227-.003-.6.295-.83.66m72.328.028c-.32.352-.47.634-.334.628.35-.014 1.417-.85 1.417-1.11 0-.386-.5-.168-1.083.48m-90.75.483c-.55.45-.83.82-.624.82s.56-.222.787-.495.53-.424.673-.335.346-.063.452-.337c.27-.708-.136-.6-1.288.346m68.987-.5c-.12.195-.58.49-1.02.658-.857.326-1.094.988-.353.988.49 0 2.22-1.373 2.22-1.76 0-.365-.6-.284-.846.115m39.848-.035c-.458.116-.885.484-.95.818-.08.42.013.528.305.348.3-.192.356-.092.174.377-.285.732-.29.776-.238 1.534.035.504 1.334.768 1.395.283l.163-1.25c.1-.845.035-1.03-.356-.88-.68.26-.625-.214.087-.734.744-.544.485-.765-.58-.495m9.83.525c-.55.45-.83.82-.624.82s.56-.222.788-.495.53-.424.673-.335.346-.063.45-.337c.272-.708-.135-.6-1.288.346m-147.916.585c-.87.585-1.584 1.26-1.584 1.5 0 .27.47.083 1.234-.496.678-.514 1.13-.762 1-.552-.232.383.71.952 1.035.626.096-.096-.01-.175-.234-.175s-.31-.16-.188-.356.463-.263.76-.15.43.1.3-.033.022-.546.344-.918c.52-.604.48-.598-.384.06-1.04.793-1.563.735-.872-.097.586-.707.4-.63-1.4.588m19.946-.293c.042.288-.16.39-.565.285-.347-.09-.63-.293-.63-.45s.25-.19.554-.072c.414.16.485.093.28-.26-.15-.26-.146-.357.01-.214s.315.462.35.7m10.095.282c-1.06.906-1.383 1.658-1.47 3.43-.036.742-.177 1.698-.313 2.125-.17.533-.13.706.123.55.497-.307.47.575-.03 1.078-.686.686.054.437.82-.275.398-.37.927-.597 1.174-.502.306.117.392-.013.27-.408-.1-.32-.052-.786.104-1.035.386-.614.057-1.765-.42-1.48-.254.152-.247.064.02-.267.345-.426.97-3.97.698-3.966-.054.001-.492.34-.973.75m42.286.094c-.684.465-1.244 1-1.244 1.167s.266.058.59-.262a12.47 12.47 0 0 1 1.416-1.15c.455-.31.75-.573.654-.583s-.733.363-1.417.828m56-.377l-1.417 1.068c-.946.7-1.062 1.13-.31 1.13.908 0 2.545-1.023 2.37-1.482-.092-.24.001-.605.207-.8.52-.522-.133-.45-.848.094m20.38.283c-1.06.906-1.382 1.658-1.47 3.43-.037.742-.178 1.698-.313 2.125-.17.533-.13.706.122.55.497-.307.472.575-.03 1.078-.685.686.055.437.82-.275.4-.37.927-.597 1.175-.502.306.117.392-.013.27-.408-.1-.32-.053-.786.104-1.035.385-.614.057-1.765-.42-1.48-.254.152-.247.064.02-.267.345-.426.97-3.97.7-3.966-.054.001-.492.34-.974.75m9.623.624c-.32.178-.58.542-.58.808s-.15.483-.334.483-.333.16-.333.353.132.272.294.172c.325-.2.26 1.7-.07 2.03-.113.113-.13.33-.036.48.258.418 1.812-.406 1.812-.96 0-.37-.108-.398-.447-.116-.513.425-.89.172-.88-.596.004-.462.045-.465.328-.027.278.43.324.422.328-.064.003-.3-.147-.658-.333-.773-.39-.24-.12-.83.378-.83.183 0 .226.173.095.385-.15.244-.09.294.163.137.292-.18.303-.367.038-.686s-.25-.48.067-.59c.237-.085.354-.238.26-.34s-.43-.04-.75.138m-148.433.447c-.356.27-.49.495-.294.5s.644-.21 1-.478.488-.495.294-.5-.644.21-1 .478m63.936.216c-1.266.81-1.387 1.096-.333.787.747-.22.747-.218-.037.355-.655.48-.834.498-1.078.114-.16-.254-.306-.386-.322-.294l-.165.833c-.215 1.073.153 1.804.55 1.094.177-.314.992-.87 1.81-1.23.864-.382 1.5-.882 1.5-1.19 0-.445-.122-.467-.75-.137-.746.39-.747.4-.115-.322.802-.903.35-.908-1.052-.01m23.874.183c-.418.507-.386.518.376.12 1.117-.58 1.202-.676.596-.676-.283 0-.72.25-.972.555m-115.593.4c-.896.69-.78 1.84.15 1.483.42-.16.445-.266.11-.474s-.296-.415.19-.953c.766-.847.605-.867-.45-.056m138.488-.104c-.54.395-.557.473-.102.473.3 0 .643-.16.763-.356.354-.572.037-.628-.66-.117m-121.506.82c-.635.542-1.02.986-.854.986.426 0 2.503-1.45 2.505-1.75.005-.46-.487-.232-1.65.764m128.422-.172l-.935.842 1.25-.708c1.262-.715 1.512-.976.935-.976-.173 0-.735.38-1.25.842m-89.13.186c-.382.382-.603.786-.5.9s.61-.2 1.103-.695.715-.9.5-.9-.72.313-1.103.695m16.944-.23c-.63.478-.775 1.38-.273 1.69.17.105.397.052.502-.12s.003-.388-.227-.484c-.29-.12-.175-.387.368-.862.863-.754.566-.934-.37-.224m42.628.397c-.525.462-1.046.75-1.157.638s.02-.34.29-.512c.3-.19.335-.312.093-.315-.58-.007-.848.58-.526 1.155.3.536 2.756-.805 2.756-1.505 0-.52-.435-.357-1.455.54m-36.074.548c-.35.41-.412.574-.137.364s.612-.395.75-.41c.283-.032.376-.347.164-.558-.077-.078-.427.195-.777.605m47.53-.43c0 .195.263.363.584.375.447.016.408.09-.167.322-.788.317-.935.848-.448 1.618.387.61 2.775-1.143 2.627-1.93-.116-.61-2.596-.978-2.596-.386m-100.25.427c-.412.2-.75.465-.75.59 0 .393 2.007.13 2.43-.32.326-.345.263-.355-.325-.053-1.026.527-1.396.446-.625-.136.747-.566.36-.61-.73-.083m53.795.284c-.87.684-1.187 1.643-.545 1.643.184 0 .334-.133.334-.295s.3-.373.666-.47c.4-.104.667-.454.667-.872 0-.86-.036-.86-1.122-.007m75.04-.46c-.796.208-.733.597.166 1.03.65.313.667.365.126.384-.522.02-.555.106-.2.533.35.423.314.59-.21.973-.86.63-.338 1.05.71.573.694-.316.787-.5.513-1.01-.184-.343-.243-.715-.13-.826s.012-.432-.22-.71c-.288-.347-.303-.508-.047-.508.206 0 .374-.15.374-.333 0-.347-.112-.358-1.083-.104m-40.084 1.24c-.55.44-1.135.716-1.3.614s-.198-.02-.07.187c.3.486 2.54-.542 2.54-1.166 0-.57.003-.57-1.167.365m30-.054c-1.807 1.315-1.865 1.748-.154 1.153.79-.275 1.187-.64 1.26-1.152.126-.907.14-.907-1.105-.001m-98.36.37c-.214.558-.805.765-.805.28 0-.324.743-1.1.902-.942.062.062.02.36-.097.66m26.263-.11c-.83.772-.892 1.035-.373 1.554.26.26.26.425 0 .587-.413.255-.49.85-.11.85.707 0 2.036-1.72 1.972-2.553-.088-1.154-.57-1.296-1.5-.44m92.404.11c-.214.558-.806.765-.806.28 0-.324.744-1.1.903-.942.062.062.018.36-.097.66m-91.38-.078a.86.86 0 0 0-.197.833c.12.315-.07.447-.6.42-.57-.028-.625-.08-.198-.192.323-.085.49-.31.374-.5s-.007-.476.246-.636c.642-.407.83-.37.385.073m-46.642.3c-.393.16-.808.44-.922.623-.17.274 1.634-.443 2.11-.84.25-.207-.457-.08-1.19.216m65.3-.16c.138.152-.012.572-.333.935-.567.64-.562.647.166.265.84-.44.957-.878.333-1.237-.23-.132-.304-.116-.166.037m-85.084.83c-1.543 1.543-.093 5.15 1.735 4.317.467-.212.784-.667.813-1.164.027-.448-.07-.742-.217-.652s-.25-.347-.232-.972c.055-1.953-.946-2.682-2.1-1.53m28.554-.127c-.52.282-.882.576-.804.655.156.156 2.25-.823 2.25-1.052 0-.257-.485-.124-1.446.397m45.433-.373c-.036.183-.05.44-.03.573s-.26.4-.624.594c-.56.3-.598.452-.25 1 .537.86 1.02.844.745-.026-.12-.376-.04-.896.175-1.156s.315-.665.22-.9-.202-.278-.238-.095m32.526.997c-1.435 1.173-.908 1.293.632.144.72-.536 1.093-.97.83-.962s-.92.375-1.463.818m-87.47.126c-.674.517-.733.712-.405 1.325.69 1.3 2.194.537 1.97-.987-.143-.98-.602-1.078-1.565-.338m118.956.266c0 .978.403.813.562-.23.056-.362-.048-.658-.23-.658s-.332.4-.332.89m-143.416-.092c-.607.46-.834 1.397-.252 1.037.31-.192 1.136-1.513.93-1.5-.052.006-.358.2-.678.453m.968.12c-.142.23-.17.556-.066.727s.032.41-.163.53c-.6.372.347 1.204 1.1.965.445-.14.586-.086.43.167-.142.23.243.574.995.888 1.7.715 1.708.46-.004-.703-.9-.618-1.565-1.365-1.745-2-.192-.668-.373-.86-.545-.583m7.948.083c-.113.183-.038.333.167.333s.265.188.133.417-.11.3.045.157c.39-.356.495-1.24.146-1.24-.157 0-.377.15-.49.333m45.334 0c-.114.183-.01.338.23.343.27.007.213.14-.147.35-.32.187-.583.59-.583.898 0 .625 1.1-.74 1.213-1.505.073-.5-.42-.56-.713-.086m25.5.167c-.338.407-.32.5.1.5a.82.82 0 0 0 .697-.5c.105-.275.065-.5-.1-.5s-.47.225-.697.5m11.117-.17c-1.1.44-1.28 1.002-.34 1.002.456 0 .796.184.77.417s.104.454.287.5.348-.286.367-.74c.02-.48-.108-.736-.307-.613-.206.127-.256-.01-.127-.345.117-.305.18-.545.14-.533s-.395.15-.79.3m-65.54.565c.065.195-.113.444-.396.552-.36.138-.514-.007-.514-.487 0-.685.687-.735.9-.065M315 206.68l-.833.664.916-.15c.98-.16 1.263.27.396.6-.287.1-.426.354-.3.54s.334.265.486.17.354.036.45.287.655.526 1.242.612c1.013.15 1.034.13.43-.375-.35-.292-.844-.943-1.096-1.448s-.593-.916-.756-.916-.204-.15-.09-.334c.3-.483.107-.403-.833.347m-116.195.366c-.15.244-.097.3.143.152.637-.393.434.322-.273.962-.363.327-.58.726-.48.885s.025.288-.163.288-.52.337-.74.748c-.342.638-.23.602.76-.25.638-.55 1.025-1.09.86-1.2s-.063-.295.228-.406c.577-.222.71-1.07.217-1.376-.17-.106-.418-.017-.55.198m25.066.348c.156.253.058.317-.284.186-.687-.264-1.73.516-1.493 1.116.138.347.194.317.213-.113.017-.373.296-.585.776-.588 1.098-.008 1.8-.507 1.094-.778-.362-.14-.465-.08-.306.177m117.994.143c-.15.393-.064.483.325.333.292-.112.678-.203.857-.203s.233-.15.12-.334c-.318-.513-1.072-.395-1.302.204m-82.032.99c-1.13.675-1.216.797-.56.802.425.003 1-.22 1.277-.498s.64-.42.805-.316.214-.045.105-.33-.22-.503-.247-.486-.647.4-1.38.828m9.42-.638c.288.116.184.364-.333.796l-.752.627 1.047.01c.68.007 1.123-.185 1.262-.545.228-.595-.322-1.114-1.143-1.08-.343.015-.368.074-.08.2m-34.755.45c-.116.186-.334.262-.486.168s-.778.048-1.393.315c-.894.388-.972.488-.388.498.402.007.824-.137.937-.32s.573-.243 1.02-.13c.61.153.813.07.813-.332 0-.613-.2-.7-.503-.197m118.666 0c-.115.186-.333.262-.485.168s-.78.048-1.394.315c-.894.388-.97.488-.387.498.402.007.823-.137.937-.32s.573-.243 1.02-.13c.61.153.813.07.813-.332 0-.613-.2-.7-.504-.197m-91.663.994c.113.184.43.334.706.334s.407-.15.294-.334-.43-.333-.706-.333-.407.15-.294.333m-61.75.907c-.23.082-.417.313-.417.514s-.487.788-1.083 1.307l-1.083.943 1.003-.545c1.467-.798 2.786-2.65 1.58-2.22m-1.088 2.775c-.456.35-.67.64-.476.644.482.01 1.688-.896 1.475-1.11-.094-.094-.544.115-1 .465m1.67.318c0 .184-.206.334-.46.334-.544 0-1.39.93-1.104 1.214.11.11.44-.044.738-.34s.663-.54.813-.54.36-.225.466-.5.047-.5-.13-.5a.33.33 0 0 0-.323.333m-113.44.94c-.496.096-.56.727-.56 5.584v5.475h11v-5.5c0-4.165-.1-5.505-.416-5.523-1.644-.094-9.576-.122-10.025-.036m28.236-.007c-.686.098-.706.255-.708 5.584l-.002 5.482h11.15v-5.5c0-5.36-.017-5.5-.7-5.52-3.26-.1-9.17-.126-9.74-.045m27.677.04c-.076.076-.138 2.588-.138 5.583v5.444h11v-5.5c0-5.474-.004-5.5-.75-5.523-3.546-.113-10-.116-10.112-.004m57.815.337c-.63.516-.704.727-.37 1.067.31.316.417.322.417.023 0-.22.16-.4.353-.4s.27.135.168.3c-.47.76 2.342.952 3.33.23.982-.718.353-.984-.852-.36-1.098.567-1.74.44-1.083-.217.987-.987-.82-1.575-1.964-.64M5 0h20v20H5zm430 0h20v20h-20z" fill="#3c6c8c"/><path d="M568.857 169.328c-.048.095-.072 5.122-.055 11.172l.03 11 8.527.187-.193 5.48-28.135.174.006 4.08-.016 5.587-.022 1.507-8.167-.014-.175 22.523 22.175-.2v-22.325l-3.833-.052-4.083-.087c-.138-.02-.25-1.313-.25-2.873v-2.838l22.5.175.096 2.75c.073 2.058-.01 2.76-.333 2.793-.236.024-2.155.06-4.263.084l-3.834.04v22.333h22.334V208.5h-8.334v-5.667l22.5-.175v2.8c0 3.3.335 3.085-4.75 3.045l-3.583-.028v22.5l22.167-.142.175-22.354-4.03.02c-4.82.025-4.352.65-4.363-5.832l-.01-5.327-28.107-.174-.193-5.5 3.847-.042 4.263-.083c.324-.033.417-2.52.417-11.206v-11.164l-11.112-.008c-6.112-.004-11.15.07-11.198.164m16.8 11.005V186h-11.334v-11.333h11.334v5.666m69 4.54c-2.47.443-5.02 1.87-7.36 4.12-1 .962-1.9 2.85-2.5 5.255-.337 1.33-.73 2.417-.872 2.417s-.26.225-.26.5.15.5.333.5.333.375.333.833c0 .9 1.067 1.202 1.533.447.16-.257.025-.33-.403-.218-.516.135-.648-.017-.68-.78-.02-.52.132-.95.34-.953.236-.003.215-.11-.058-.282-.308-.195.203-.693 1.75-1.7 1.202-.784 2.186-1.477 2.186-1.542 0-.225-1.17.33-1.607.76-.56.555-1.177.568-.855.02.134-.23-.083-.13-.483.22s-.837.525-.974.388.092-.524.508-.86c.612-.496.655-.633.23-.722s-.352-.34.41-1.357c1.463-1.95 4.942-4.06 3.647-2.213-.27.388-.413.915-.315 1.17s.036.65-.138.878-.207.788-.07 1.246c.226.76.46.38.344-.558-.026-.216.092-.478.263-.584s.238-.47.148-.813c-.105-.4.145-.862.705-1.303.544-.428.713-.733.454-.82-.273-.09-.163-.35.327-.77.407-.35.74-.812.74-1.03 0-.398 2.54-1.79 3.265-1.79.847 0 3.07 1.1 3.07 1.518 0 .244.3.662.7.928l.7.483-1.547 1.11.94-.228c.698-.17.925-.11.88.23-.084.643.372 1.96.68 1.96.423 0 .64-1.332.22-1.344-.212-.005-.094-.23.26-.5.763-.576 1.322-.644 1-.12-.125.202.18.102.675-.224.852-.558 1.48-.34 1.508.525.008.274-3.134 2.135-3.457 2.048-.162-.044-.2.395-.083.976s.21 1.338.21 1.682c0 .837.463.787 1.93-.208 1.502-1.02 2.255-1.12 1.694-.22-.2.337-1.035.9-1.833 1.25s-1.45.84-1.453 1.086c-.002.304.588.115 1.83-.586 1.085-.612 1.833-.87 1.833-.632 0 .313.09.314.4.003 1-1 1.23.552.27 1.813-.395.518-.395.552-.005.203.625-.557 1-.525 1 .084a.5.5 0 0 1-.5.5c-.275 0-.5.22-.5.49 0 .298.195.415.5.298.682-.262.628.097-.19 1.245-.58.812-.605.968-.164.968.625 0 .232.854-1.147 2.487-.458.543-.57.787-.25.542.412-.314.583-.33.583-.056 0 .56-3.007 3.693-3.545 3.693-.25 0-.455.15-.455.334 0 2.23 5.033-3.767 5.55-6.61.084-.463.238-.98.34-1.148.334-.54.186-4.043-.214-5.074-.214-.55-.325-1.33-.248-1.733.08-.422-.053-.808-.314-.908-.25-.096-.434-.29-.41-.434.118-.713-.11-.787-.88-.283-.463.303-.99.46-1.17.35s-.783.124-1.343.523-1.092.65-1.183.557.33-.515.935-.94 1.28-1.004 1.5-1.286c.325-.42.518-.438 1.068-.102 1.29.786 1.085-.23-.356-1.768-2.403-2.564-7.137-4.438-9.94-3.935m37.888.544c-1.11.813-1.284 2.818-.31 3.585 1.533 1.206 3.088.623 3.577-1.34.205-.818-.753-2.33-1.475-2.33-.162 0-.498-.078-.747-.174s-.72.02-1.046.26m24.112-.144c-1.26.115-2.246.726-1.174.726 2.41 0 3.236 1.107 2.99 4-.07.825-.116 1.8-.1 2.167s.017 1.866.005 3.333l-.02 8.054c.001 5.893.066 5.702-2.133 6.28-1 .263-.233.328 3.594.306 3.228-.018 4.993-.158 5.25-.416.297-.297.148-.4-.625-.4-1.442 0-2.26-1.006-2.02-2.486.104-.642.05-1.255-.122-1.36-.7-.433-.33-2.396.563-2.982.497-.326.762-.4.612-.15-.18.29-.107.365.23.237s.74.297 1.287 1.36c.438.85 1.102 1.996 1.476 2.543s.635 1.26.58 1.584.06.588.254.588.355.225.355.5c0 .293-.304.5-.734.5-.403 0-.59.113-.416.252s2.164.176 4.423.083l4.106-.17-1.7-.597c-1.49-.527-3.845-3.236-2.81-3.236.124 0-.024-.275-.33-.612-1.15-1.27-3.245-6.782-2.798-7.357 1.833-2.36 3.65-3.698 5.018-3.698.472 0 .95-.15 1.064-.333.133-.215-1.22-.333-3.814-.333-2.607 0-4.02.124-4.02.353 0 .194.125.275.28.18 1.437-.888 2.18 2.203.897 3.728-.454.54-.716 1.1-.584 1.246s.06.163-.16.036c-.236-.135-1.127.452-2.162 1.424-.97.91-1.794 1.62-1.834 1.58-.176-.175-.232-15.196-.058-15.37.106-.106.124-.554.04-.995-.16-.834-1.29-.954-5.418-.575m26.8.195c-2.585.8-7.477 5.302-7.477 6.866a1.52 1.52 0 0 1-.397.928c-.44.44-.468.53-.916 2.904-.64 3.388.75 9.5 2.16 9.5.224 0 .804.52 1.3 1.16 1.66 2.176 7.6 4.306 8.69 3.115.236-.26.22-.305-.056-.15-1.025.576-4.438-.965-4.438-2.004 0-.22-.147-.448-.328-.51s-.47-.786-.645-1.61-.48-2.153-.68-2.95c-.427-1.7-.197-10.08.302-11.013.18-.338.237-.707.126-.818-.418-.418.978-3.224 2.087-4.198 1.138-1 1.685-1.218 3.64-1.462.66-.082.488-.135-.5-.153-.825-.015-2.1.164-2.856.397m9.9.43c-.868 2.275-1.537 2.44-3.054.747-.382-.426-1.84-1.314-2.157-1.312-.19 0 .107.28.657.62.988.612 2.006 1.546 3.364 3.087.708.803 1.08 1.865 1.377 3.944.454 3.16.695 1.973.54-2.654-.192-5.673-.2-5.785-.726-4.433m42.28-.533c-1.897.252-1.437.404 1.333.44 1.92.024 2.172.103 2.213.694.338 4.904.47 9.167.284 9.167-.13 0-.52-.362-.867-.805-2.848-3.62-9.347 1.588-9.322 7.47.01 2.366.17 3.667.45 3.667.142 0 .41.338.592.75 1.953 4.39 6.497 5.35 9.04 1.9.834-1.128 1.293-.807 1.05.734l-.153.972 6.606-.24c3.633-.13 7.618-.21 8.856-.175 1.445.04 2.25-.067 2.25-.3 0-.2-.338-.337-.75-.304-3.06.248-3.383-.43-3.107-6.483.365-7.973.207-9.658-.845-9.008-.184.114-1.668.193-3.297.176-1.654-.018-3.052.115-3.167.302-.206.332.887.426 4.943.423l1.944-.001-.1 1.925c-.06 1.06.008 1.85.152 1.76s.177.187.07.614-.23 1.828-.275 3.112-.2 2.52-.34 2.75c-.147.238-.098.416.115.416.205 0 .28.15.167.334s-.492.333-.84.333c-.948 0-1.494 1.202-.745 1.64.53.31.52.342-.125.35-.823.012-1.298-1.2-.734-1.89.26-.313.255-.434-.014-.434-.515 0-.475-2.244.042-2.418.333-.112.333-.243-.002-.648-.34-.41-.32-.746.1-1.752.286-.683.362-1.145.17-1.026s-.35-.005-.35-.276.188-.568.417-.66c.318-.128.303-.248-.062-.502-.382-.266-.396-.432-.07-.826s.32-.53-.02-.666c-.313-.126-.294-.183.07-.2.473-.035 2-1.127 2-1.43 0-.25-1.312-.052-1.576.24-.14.155-.07.175.16.043s.416-.08.416.113c0 .57-.938.405-1.29-.228-.385-.687-.54-.564-.835.664-.13.545-.082.917.12.917.436 0 .44 1.192.005 2.002-.224.42-.222.693.006.834a.4.4 0 0 1 .13.549c-.115.187-.187 1.89-.16 3.783.03 2.1-.086 3.527-.3 3.66-.194.12-.266.357-.16.528.28.452-1.33.976-3 .976-2.525 0-2.833-.524-3.042-5.166-.098-2.2-.233-4.17-.3-4.377s.001-.92.15-1.585.145-1.288-.01-1.384-.21-.367-.12-.6.206-1.466.26-2.74.14-2.464.195-2.648.08-1.533.06-3l-.04-2.666h-3.417c-1.88 0-4.09.1-4.916.2m15.555.05c-1.11.813-1.284 2.818-.31 3.585 1.533 1.206 3.087.623 3.577-1.34.204-.818-.753-2.33-1.476-2.33-.16 0-.497-.078-.746-.174s-.72.02-1.046.26m-151.64.46c.413.1.75.332.75.493 0 .4-1.25.18-1.738-.308-.436-.436-.15-.5.988-.185m61.663.944c-.14 1.044-.374 1.267-1.453 1.382l-.875.094.79-.86.79-.86-.833.397c-.776.37-.8.362-.2-.11.348-.28.75-.435.893-.346s.356.01.47-.177c.357-.578.53-.376.416.482m80.754-.357c0 .256-.246.56-.547.675-.476.182-.488.138-.086-.346.414-.5.38-.53-.328-.305-.543.172-.718.135-.56-.12.328-.53 1.522-.456 1.522.095m21.02 1.883c-.48 2.7-1.227 3.768-3.818 5.512-1.685 1.135-1.718 1.27-.287 1.154 1.04-.084 1.487 1.258 1.38 4.154-.047 1.283.03 2.678.17 3.1.163.49.094.96-.19 1.304-.35.423-.355.568-.028.68.24.08.417.7.417 1.462 0 4.867 6.46 6.146 7.824 1.55.638-2.15.65-3.94.032-4.78s-1.24.5-.863 1.85c.23.827.13 3.78-.157 4.587-.225.63-1.755.498-2.468-.215-1.61-1.61-2.006-13.778-.452-13.902.23-.018 1.25-.056 2.27-.083 2.504-.068 2.033-.717-.52-.717-1.078 0-2.034-.12-2.124-.265-.27-.435-.608-3.763-.594-5.818.018-2.492-.086-2.417-.594.43m-128.19-1.675c-.173.28-2.3 1.328-2.694 1.328-.063 0-.03-.224.076-.498s.303-.43.44-.344.534-.06.882-.325c.73-.552 1.605-.66 1.296-.16m118.667 0c-.173.28-2.3 1.328-2.694 1.328-.063 0-.03-.224.076-.498s.303-.43.44-.344.534-.06.882-.325c.73-.552 1.605-.66 1.296-.16m-162.33.53c-1.202.926-2.024 1.187-1 .317.55-.467 1.15-.845 1.333-.84s.033.24-.333.523m11.495.414c-.03 1.312-2.18 1.75-2.42.493-.1-.517-.022-1.038.17-1.157.385-.238 2.258.315 2.25.664m140.345-.124c-.232.28-.286.508-.12.508.59 0 .215 1.68-.56 2.507-1.1 1.16-1.27 2.486-.192 1.407.23-.23.358-.606.282-.834s.033-.413.243-.413.288.15.174.333-.077.333.08.333c.56 0 .242 1.73-.412 2.24-.517.4-.538.473-.094.32 1.365-.47.98.587-.62 1.704-1.34.936-2.03.01-.758-1.02.404-.327.64-.687.528-.8s-.42-.027-.684.192c-.3.25-.553.275-.68.07-.11-.18.138-.576.553-.88l.756-.554-.75.22c-.64.188-.75.095-.75-.636 0-.47.145-.856.322-.856s.474-.285.66-.634c.287-.535.24-.608-.3-.466-.56.147-.61.05-.386-.783.163-.605.49-.962.897-.984 1.178-.062 1.315-.197.475-.466-.75-.24-.762-.27-.124-.3.4-.018.898-.262 1.13-.54s.497-.433.59-.342-.023.396-.255.675m-107.8.664c-.316.822-1.428 1.227-1.878.684-.325-.392-.194-.605.715-1.157 1.092-.665 1.53-.487 1.163.473m118.667 0c-.316.822-1.428 1.227-1.88.684-.325-.392-.193-.605.715-1.157 1.093-.665 1.532-.487 1.164.473M721.5 189c-.37 1.163-.43 2.48-.138 3.04.155.296.174.647.043.78s-.238.55-.238.93-.225.765-.5.857c-.445.15-.445.096 0-.47.458-.585.453-.6-.064-.197-.3.243-.492.627-.405.854s-.184.704-.603 1.06l-.762.646.635-.75c.572-.675.51-.904-.218-.79-.44.07-.268-.374.307-.795.306-.224.595-.666.64-.982.08-.542.048-.54-.557.006-.708.64-.822.438-.3-.538.276-.516.243-.6-.173-.44-.425.164-.46.053-.195-.64.175-.46.215-.95.09-1.09s-.057-.156.153-.036.735-.076 1.167-.436c.484-.403.61-.658.327-.665-.37-.01-.377-.108-.042-.51.593-.715 1.082-.617.833.168m101.777 1.81c-.042.63-.172 1.086-.288 1.014-.223-.138-.012-2.16.226-2.16.077 0 .105.515.062 1.145m-82.944-.312c-.228.275-.603.5-.833.5s-.604.223-.83.496-.536.42-.687.327-.423.094-.604.417-.444.472-.585.33c-.37-.37 1-1.63 2.278-2.094 1.527-.554 1.737-.55 1.26.023M666 192.333c0 .184-.16.334-.353.334s-.26.148-.15.33c.116.19-.017.245-.314.13-.624-.24-.672-.676-.1-.906.674-.272.917-.242.917.112m73.962.784c-.218.48-.71.967-1.096 1.085s-1.344.646-2.133 1.173-1.524.958-1.635.958c-.496 0 1.187-1.455 2.603-2.25.872-.5 1.493-1.057 1.406-1.284s.118-.467.452-.54c.832-.184.855-.133.403.86m-76.138-.152c-.746.717-2.157 1.23-2.157.785 0-.298 1.888-1.356 2.5-1.395.18-.012.03.263-.333.6m159.722-.132c.106.275.078.763-.06 1.084s-.268.8-.286 1.068-.514.81-1.102 1.208-.964.84-.834.985.05.154-.18.022c-.636-.366-.498-1.058.334-1.675.412-.306.562-.465.334-.354-.765.37-1.748-.602-1.27-1.256.883-1.206 2.763-1.87 3.065-1.082m-45.016.54c-8.373 1.964-8.1 16.96.31 16.96 4.375 0 8.476-3.627 7.368-6.516-.405-1.054-1.043-.297-.94 1.115.335 4.623-6.534 6.603-8.04 2.318-.113-.32-.377-.583-.587-.583-.422 0 .34 1.345 1.463 2.583.375.412.514.75.31.75a.75.75 0 0 1-.569-.319c-.108-.175-.398-.24-.643-.147s-.68-.063-.966-.348-.68-.52-.876-.52c-.497 0-.45-.908.06-1.113.23-.092.08-.18-.334-.194-.777-.028-1.002-.498-.41-.863.186-.116.27-.32.188-.453s.162-.44.543-.677c.602-.376.667-.362.49.1-.112.293-.06.533.118.533.594 0 .824-.164.705-.5-.065-.183-.187-.966-.272-1.738-.167-1.54-.088-1.597 2.557-1.87.736-.075.46-.14-.75-.173l-1.917-.053v-1.385c0-1.455 1.528-5.142 2.448-5.905 1.85-1.535 3.154.43 3.402 5.123l.14 2.667 1.588-.12c1.964-.146 2.17-.427 1.932-2.66-.315-2.97-1.94-5.188-4.093-5.592-.6-.113-1.173-.338-1.273-.5-.208-.336-.185-.337-1.947.077m-112.35.605c-.12.195-.473.35-.783.345-.495-.01-.485-.07.08-.497.685-.518 1.067-.436.704.152m5.988-.398c-2.687.12-4.443.753-2.085.753 1.5 0 2.154.853 1.342 1.75-.482.533-.482.584.002.584.45 0 .51.4.402 2.695-.11 2.315-.055 2.668.382 2.5.28-.107.59-.195.7-.195s-.025-.254-.277-.564-.295-.467-.096-.348.36.004.36-.255-.132-.39-.293-.3-.256-.442-.21-1.205c.054-.913.28-1.492.66-1.696.752-.402 1.046-.392.787.027-.12.195.147.174.64-.05.796-.363 1.053-1.005 1.306-3.273.063-.57-.092-.588-3.61-.432m8.57.001c-2.208.105-3.258.752-1.22.752.5 0 .813.192.813.5 0 .275.15.5.334.5s.333.225.333.5c0 .794.813.585 1.948-.5 1.04-.994 1.72-1.27 1.72-.702 0 .164-.225.384-.5.5-.704.27-.627.898.083.675.54-.17.537-.146-.018.3-.444.365-.488.53-.166.638.45.15.75 5.507.405 7.284-.16.83-2.3 2.254-2.734 1.82-.226-.225-.17-.275 1.263-1.148.89-.542.992-.684.425-.602-.408.06-.845.21-.972.338-.537.537-.692.118-.657-1.77.024-1.277-.098-2-.336-2-.25 0-.332.71-.248 2.146.07 1.18-.02 2.235-.196 2.344s-.247.388-.158.62c.255.666-1.906 2.824-3.055 3.05-1.67.328-1.956-.348-2.033-4.793-.124-7.105-.168-7.342-1.146-6.137-.26.322-.288.463-.064.328.217-.13.488-.083.603.103s-.008.34-.274.34-.575.237-.687.527c-.307.8-.257.868.465.64.947-.3.827.302-.166.833-.46.246-.76.52-.67.6.19.19-.835.964-1.332 1.008-.384.035-.832 3.465-.486 3.716.126.092.334.5.46.908.888 2.847 6.325 3.337 7.96.718.55-.882.897-.778.897.27 0 .77.06.824.417.382.23-.283.792-.78 1.25-1.105.616-.436.66-.527.167-.35-1.548.557-1.623.527-.732-.295.515-.474 1.143-.862 1.397-.862.607 0 1.065.756.56.924-.215.072-.392.278-.392.456s.175.217.4.085c.262-.162.32-.06.177.313-.117.305-.067.555.1.555.68 0 .284.596-.494.745-.512.098-.884-.02-.997-.316-.1-.26-.335-.376-.522-.26s-.255.35-.15.52-.126.3-.514.3c-.42 0-.616.145-.483.36s.586.267 1.103.133c.484-.125 1.882-.2 3.107-.188s2.312-.1 2.416-.267-.335-.3-.975-.272c-2.035.057-2.166-.4-2.13-7.6.042-8.55.13-7.846-.954-7.767-.504.036-2.01.118-3.344.18m25.03.444c-.768.38-1.593.934-1.833 1.23-.366.452-.36.494.03.257.32-.192.392-.158.227.11-.133.214-.363.314-.512.222-.465-.287-2 1.156-2.773 2.605-3.244 6.087 3.038 14.06 9.1 11.548 2.317-.96 4.83-4.866 4.194-6.52-.405-1.055-1.042-.21-1.282 1.7-.397 3.15-3.036 5.286-5.348 4.328-1.114-.46-2.037-1.68-1.78-2.35.11-.288-.012-.484-.303-.484-.594 0-.63-.392-.1-.934.31-.31.284-.4-.12-.4-.695 0-1.12-3.218-.52-3.957.332-.4.32-.452-.06-.223-1.07.645.382-5.26 1.617-6.58 1.03-1.1 2.798-1.113 3.803-.03 1.075 1.16 1.097 1.562.13 2.36-1.255 1.037-1.698 2.05-1.186 2.704 2.317 2.962 5.624-.216 3.63-3.487-1.627-2.667-4.198-3.446-6.924-2.097m60.366.02c-2 .763-2.47.777-2.47.075 0-.463-.265-.514-1.75-.336-.963.116-2.538.212-3.5.213s-1.75.153-1.75.336.44.334.975.334c1.772 0 2.382 1.26 2.154 4.455-.106 1.49-.192 3.086-.19 3.545s-.162 1.032-.363 1.275c-.263.317-.264.505-.004.667.2.125.293.742.207 1.39l-.243 2c-.07.673-.35.898-1.453 1.17-2.132.524-2.05.83.22.83 1.145 0 3.795.065 5.89.146 2.248.085 3.808.017 3.808-.167 0-.172-.667-.312-1.48-.312-2.032 0-3.66-2.922-2.15-3.856.257-.16.23-.313-.084-.51-.367-.23-.373-.408-.035-.954.515-.832.53-1.125.045-.824-.268.165-.336-.82-.244-3.523l.13-3.752 1.108-.925c1.05-.878 2.505-1.42 2.86-1.065.1.09-.207.454-.66.81-1.012.797-1.073 2.122-.143 3.112 1.437 1.53 3.94-.226 3.25-2.28-.774-2.312-1.76-2.755-4.127-1.856m-71.538-.2c-.12.12-1.57.203-3.22.185-1.683-.018-3.094.115-3.2.302-.205.332.887.426 4.944.423l1.944-.001-.11 1.925c-.06 1.06.008 1.85.153 1.76s.176.187.07.614-.23 1.828-.275 3.112-.2 2.52-.34 2.75c-.148.238-.1.416.115.416.205 0 .28.15.166.334s-.492.333-.84.333c-.948 0-1.494 1.202-.744 1.64.53.31.52.342-.126.35-.823.012-1.298-1.2-.734-1.89.26-.313.256-.434-.014-.434-.514 0-.475-2.244.043-2.418.332-.112.332-.243-.003-.648-.34-.41-.32-.746.1-1.752.285-.683.362-1.145.17-1.026s-.35-.005-.35-.276.188-.568.417-.66c.318-.128.303-.248-.062-.502-.382-.266-.396-.432-.07-.826s.32-.53-.022-.666c-.313-.126-.294-.183.07-.2.472-.035 2-1.127 2-1.43 0-.25-1.312-.052-1.577.24-.14.155-.07.175.16.043s.417-.08.417.113c0 .57-.938.405-1.292-.228-.385-.687-.54-.564-.834.664-.13.545-.082.917.12.917.436 0 .44 1.192.006 2.002-.225.42-.223.693.005.834a.4.4 0 0 1 .129.551c-.116.187-.187 1.83-.158 3.653s-.065 3.496-.207 3.72-.26.557-.263.74-.63.484-1.397.67c-2.71.654-1.826.836 3.833.79 3.33-.027 5.725-.178 5.725-.36 0-.173-.337-.287-.75-.254-3.057.248-3.382-.43-3.112-6.483l.228-7.55c-.043-.695-.828-1.74-1.1-1.468m-45.403.442c-.113.183-.074.414.088.514.665.41-.076 1.86-1.4 2.735-.76.503-1.662 1.27-2.006 1.71s-.807.725-1.03.64c-.3-.12-.325.144-.064 1.124.326 1.22 1.124 1.105 1.22-.176.04-.525 3.33-2.94 3.327-2.44-.001.243-.45.697-1 1.01s-.998.736-.998.94.396.062.88-.318c.913-.718 1.455-.878 1.455-.43 0 .493-1.903 1.385-2.648 1.242-.656-.126-.692-.078-.3.407.268.33.29.456.053.315-.216-.13-.488-.084-.603.102s.025.34.3.34c.84 0 .595.575-.346.812-.87.218-.953 1.83-.11 2.132.17.062.308.324.308.584 0 .657.545.59 1.065-.133.685-.953 1.722-1.242 1.243-.348-.205.385-.66.774-1.007.865-2.36.617 4.31 4.39 7.796 4.413 1.255.008 1.263.017 1.188 1.288-.194 3.292 5.666 6.903 7.777 4.792.278-.278.125-.308-.593-.115-1.808.486-4.638-.534-3.75-1.352 1.543-1.424 3.815-1.217 2.608.238-.33.398-.305.49.134.49.297 0 .54-.225.54-.5s.16-.5.353-.5.25.165.127.366c-.16.258-.017.254.48-.01.7-.375.906-.152.728.784-.032.17.173.114.457-.12s.443-.543.355-.685.092-.462.4-.712c.488-.397.53-.38.34.13-.384 1.023.003.627.707-.723.784-1.504 1.072-3.567.654-4.695-.54-1.457-1.088-.19-.987 2.278.097 2.37-.4 3.056-2.165 3.056-1.166 0-3.782-2.945-3.782-4.258 0-.732-1.27-4.09-1.78-4.713-2.05-2.493-6.887-1.442-6.887 1.497 0 .766-.62 1.18-.708.474l-.083-.722c-.057-.527-.763-.73-1.03-.295-.12.193-.058.35.136.35s.353.205.353.455.614.862 1.364 1.36 1.285.98 1.19 1.077c-.246.246-2.553-.55-2.553-.88 0-.15-.338-.362-.75-.473-1.732-.466-2.394-1.34-1.755-2.317.318-.485.735-.784.926-.666s.25.056.125-.146a.42.42 0 0 1 .123-.577c.19-.118.326-.09.3.06-.108.622.05 1.108.364 1.108.183 0 .296-.525.25-1.166s-.186-1.167-.312-1.167-.226-.263-.22-.584c.066-4.368-.42-9.167-.855-8.462m26.138.04c0 .18-.525.548-1.166.816-1.258.526-1.377.686-.782 1.053.225.14.295.093.168-.112-.28-.455.547-.77 1.11-.42.3.19.047.47-.9.952l-1.337.683.078-.734c.043-.403.097-.842.12-.975.033-.187 2.23-1.506 2.626-1.576.046-.008.083.133.083.314m100.87.968c-.67.7-.8 1.033-.51 1.218.265.164.327.117.174-.13-.13-.212-.075-.385.124-.385.3 0 .248 3.304-.065 3.48-.05.03-.503.23-1.007.445-1.107.476-1.204 1.085-.167 1.05.412-.015.562-.103.33-.195-.525-.212-.206-.78.44-.78.59 0 .64 1.203.063 1.472-.333.156-.333.234 0 .39.693.323.47 1.502-.416 2.2-.46.36-.834.87-.834 1.13s-.13.476-.292.476c-.633 0-1.108-1.05-.98-2.157.075-.64-.02-1.225-.213-1.296-.233-.087-.22-.27.042-.546.214-.23.307-.634.204-.9-.27-.704.6-3.1 1.125-3.1.246 0 .458-.188.472-.417.072-1.177.34-1.772 1.038-2.3 1.204-.926 1.492-.708.472.357m22.857.87c.925 1.703.972 2.058 1.03 7.666.038 3.842-1.58 6.443-3.712 5.962-1.006-.228-2.45-1.765-2.224-2.368.084-.223.022-.486-.137-.584-.298-.185-.256-8.283.048-9.176 1.15-3.388 1.145-3.38 2.683-3.27 1.312.095 1.47.217 2.313 1.77m-77.975 1.49c-.3.464-.525 1.03-.477 1.255.052.248-.12.333-.43.213-.285-.11-.763.005-1.062.253-.485.403-.515.362-.276-.38.147-.457.268-1.022.27-1.256s.466-.924 1.03-1.532l1.028-1.107.24.855c.163.58.06 1.127-.323 1.7m41.916-1.98c0 .148-.158.322-.35.387s-.395.414-.447.777c-.063.44-.398.697-.996.768-.82.097-.888.023-.748-.833l.18-1.19c.015-.137.164-.25.33-.25s.22.338.12.75l-.183.75.672-.666c.37-.367.607-.778.53-.913s.09-.157.376-.048.517.32.517.47m21.33.322c-.004.264-1.762 1.016-1.946.832-.49-.49.724-1.767 1.325-1.39.343.214.622.465.62.56m-44.87-.146c.114.298.058.43-.134.312-.182-.113-.766.104-1.297.483s-1.083.687-1.227.687-.603.323-1.023.717c-.695.653-.782.666-.982.144-.218-.567 1.602-2.492 2.37-2.506.183-.004-.042.287-.5.645-1.132.886-.737.83 1.03-.142l1.516-.833c.027-.014.137.208.247.493m30.452.637c-.19 1.407-2.58 2.81-2.58 1.512 0-.183.16-.333.353-.333s.274-.128.177-.285.195-.453.647-.66.823-.612.823-.902.154-.432.342-.316.295.558.238.983m24.044-.57c-.56.713-1.417 1.4-1.564 1.253-.06-.06.23-.497.642-.972.833-.958 1.648-1.206.922-.28m-130.62.732c-.81.672-1.24.846-1.412.574-.136-.214-.25.314-.253 1.174s-.155 1.656-.34 1.77-.333.43-.333.706c0 .294.16.4.386.26.56-.347.1 3.604-.573 4.904-.74 1.43.53 1.064 2.187-.632l1.167-1.193-1.272.927c-.7.5-1.34.858-1.426.773-.222-.222.464-1.913.776-1.913.144 0 .86-.522 1.592-1.16s1.142-1.163.913-1.167-.417.144-.417.327-.225.333-.5.333-.5.133-.5.295-.3.373-.666.47c-.953.25-.842-.557.15-1.088.847-.453 1.404-1.342.84-1.342-.177 0-.323.132-.323.294s-.3.373-.666.47c-1.14.298-.764-.69.655-1.717.727-.527 1.215-1.076 1.083-1.222s-.008-.182.274-.082c.338.12.51-.022.51-.42 0-.617-1.48.13-2.033 1.026-.305.493-1.157.374-1.157-.163 0-.265.938-1.012 2.083-1.662 1.887-1.07 2.558-1.734.812-.803-.658.35-.684.335-.27-.167.72-.874-.01-.63-1.287.428m139.273.932c-.32.394-.327.477-.027.297.657-.395.506.812-.166 1.336-.5.39-.505.427-.034.264.6-.207 1.082 3.068.505 3.425-.154.095-.116.335.083.535.672.672.43 2.427-.388 2.822l-.75.362.75.022c.797.024 1.116 1.23.334 1.26-.23.008-.68.125-1 .258-.35.145-.584.094-.584-.127 0-.203.168-.37.372-.37.22 0 .135-.362-.21-.89-.558-.852-.556-.908.044-1.347.478-.35.525-.52.2-.72-.235-.145-.33-.513-.213-.82.12-.313.053-.557-.155-.557s-.37-.15-.37-.333.216-.333.48-.333.583-.166.71-.37c.15-.244.006-.3-.423-.163-.577.183-.646.054-.6-1.13.027-.735-.06-1.337-.195-1.337-.414 0-.142-.876.46-1.477.696-.696.76-1.095.086-.535-.555.46-1.182.197-1.182-.498 0-.277.202-.392.492-.28.27.104.744-.064 1.053-.373.768-.768 1.433.213.732 1.078m-121.385-.447c-.108.28-.063.594.1.694.436.27.805-.498.424-.88-.214-.214-.395-.15-.524.185m30.775.215l-.833.668.842-.193c.72-.164.853-.07.913.653.056.675-.114.887-.843 1.05-.502.11-1.157.268-1.456.348-.747.2-1.068-.8-.452-1.426.276-.276.402-.663.28-.86s-.067-.262.125-.143.533-.01.76-.282.656-.493.955-.49c.407.006.335.174-.29.675m27.667-.524c0 .087-.464.398-1.03.69s-.946.618-.842.723.413.004.687-.223.67-.355.88-.284c.405.135-2.1 1.935-2.692 1.935-.2 0-.643.487-1.006 1.083-.57.934-.66.983-.662.358 0-.428.513-1.166 1.25-1.796l1.25-1.07-1.296.768c-.875.518-1.246.616-1.14.3.28-.842 4.604-3.177 4.604-2.486m45.12.342c-.105.275-.02.5.193.5.23 0 .145.32-.214.8-.33.44-.735.716-.9.615s-.186.002-.046.23c.185.298.358.312.62.05a1.42 1.42 0 0 1 .87-.362c.354 0 .283.157-.234.52-.408.286-.88.433-1.052.328s-.403-.04-.52.148-.37.338-.563.338c-.224 0-.202-.184.06-.5.335-.403.326-.5-.043-.507-.27-.004-.115-.288.376-.69.752-.615.76-.646.084-.314-.413.202-.75.292-.75.2s.337-.53.75-.976c.847-.915 1.662-1.14 1.37-.38m-135.454.122c0 .16-.637.694-1.416 1.19l-1.417.9 1.245-1.19c1.283-1.225 1.588-1.398 1.588-.9m33.95.142c-.255.254-.685.55-.957.656-.432.17-.432.196.006.21.603.02 1.86-.88 1.6-1.142-.102-.102-.394.022-.648.277m20.05.6c-.914.795-.966.89-.24.446 1.15-.704 1.35-.54.747.622-.258.495-.336.9-.175.9s.266.362.23.805c-.068.864-1.363 2.195-2.134 2.195-.258 0-.383.14-.277.3s.002.42-.23.554-.3.12-.175-.03.092-.46-.1-.7c-.232-.28-.235-.487-.01-.626s.212-.483-.036-1.03c-.307-.673-.266-.94.23-1.488.333-.367.498-.668.367-.668s-.12-.187.027-.416.266-.553.27-.72.287-.343.632-.393.788-.253.984-.45.513-.352.706-.347-.175.465-.817 1.022m89.634-.177c.207-.128.286.448.21 1.545-.11 1.626-1.22 3.258-2.222 3.266-.117.001-.298.333-.404.737-.264 1.01-.533.64-.324-.45.093-.484.492-1.047.887-1.25l.718-.372-.722.182c-1.366.344-1.278-.588.177-1.88 1.353-1.2 1.43-1.882.16-1.405-.542.203-.56.164-.153-.336.345-.424.572-.475.902-.2.243.202.6.275.77.163M763 198.5c0 .28-.2.588-.444.68-.71.272-.55 1.185.166.958.336-.107.61-.034.61.162s-.23.356-.5.356-.597.224-.702.498-.363.4-.573.28-.27-.094-.13.058-.012.585-.333.962-.016.202.678-.4c1.458-1.243 1.575-1.28 1.562-.492-.005.32-.516.96-1.136 1.417s-1.065.896-.99.974.496-.197.934-.61c.832-.782 1.6-.415.9.43-.198.238-.286.507-.196.597s-.446.653-1.192 1.252c-1.455 1.17-1.96 1.188-1.25.045.286-.462.323-.793.104-.95-.482-.344-.41-2.49.087-2.657.23-.077.34-.27.24-.428s.13-.453.507-.655c.83-.444.537-1.1-.36-.824-1.115.353-.74-.95.452-1.57 1.366-.71 1.576-.724 1.576-.097m-81.692.24a9.92 9.92 0 0 1-.137 1c-.062.32.025.583.192.583s.304-.45.304-1c0-.955-.306-1.452-.36-.583m57.738.594c-.83.692-1.56.886-1.213.323.114-.184.422-.334.687-.334s.48-.15.48-.333.188-.328.417-.322.062.306-.37.666m83.62-.186c0 .087-.45.39-1 .675-1.092.565-1.348.338-.417-.37.573-.435 1.417-.617 1.417-.306m-101.793.475c.26-.217.584-.286.717-.153s-.05.454-.405.714c-.454.332-.714.363-.874.105-.144-.234-.42-.1-.762.397-.294.42-.64.66-.766.533s.13-.615.57-1.083.856-.687.923-.485c.087.26.26.252.598-.028m18.676.523c-.103.27-.044.578.132.687.62.383-.305 1.372-1.662 1.778-.78.234-1.353.612-1.353.892 0 .808-.66.547-1.022-.404-.406-1.068-.18-1.336 2.186-2.572 1.943-1.016 1.965-1.02 1.72-.38m83.523-.073c-.34.414-.262 2.34.12 2.958.11.177.008.55-.225.832-.266.32-.302.595-.098.736.748.515.486 2.04-.39 2.26-1.205.303-1.444-.14-.475-.88l.828-.632-.87.153c-.845.148-.868.107-.798-1.43.04-.87-.048-1.736-.194-1.926-.343-.443 1.242-2.488 1.927-2.488.374 0 .422.115.175.416m-96.294.5c-.225.828-1.78 1.958-1.78 1.294 0-.362 1.426-1.773 1.885-1.866.03-.006-.02.25-.106.572m27.253-.122c-.287.346-.345 1.175-.193 2.767.306 3.208-1.837 6.352-4.406 6.465-.396.017-.45.087-.154.204.894.357 2.917-.926 3.95-2.504 1.837-2.806 2.56-9.05.803-6.932m-104.48.69c-.214.556-1.22.72-1.22.198 0-.344 1.08-1.047 1.29-.84.07.07.038.358-.07.64m51.555-.055c-.13.2-.04.235.23.066.324-.2.383-.12.22.304-.182.474-.088.536.526.35.88-.266 1.537-.797 1.065-.86-1.393-.187-1.86-.155-2.043.14m84.226.07c0 .325-.32.496-.916.49-.878-.01-.9-.03-.27-.5.825-.624 1.186-.62 1.186.01m-110.417.647c-.714.522-.763.9-.083.64.275-.106.5-.034.5.158 0 .522-1.305 1.337-1.943 1.213-.306-.06-.67-.12-.807-.133-.562-.057-.174-.608 1.14-1.618.766-.59 1.478-.983 1.583-.878s-.07.384-.39.618m45.133-.032c-.412.438-.65 1.005-.54 1.3.112.293-.025.593-.324.708-.907.348-.687-1.872.23-2.327 1.22-.604 1.413-.503.632.33m-70.758.923c-.387.25-.387.34.004.593.373.24.333.366-.206.654-.367.197-.74.285-.83.195s-.353.066-.585.345c-.537.648-1.006.65-1.006.008 0-.275-.17-.5-.374-.5-.26 0-.246-.155.04-.5.23-.275.636-.5.905-.5s.885-.31 1.368-.69c.6-.464.92-.56 1-.294.073.217-.074.528-.325.7m78.936.212c.243.596.33 1.066.19 1.044-.75-.12-1.136.092-.968.528.103.27.04.58-.14.692s-.306.078-.28-.073c.117-.67-.068-.9-.356-.444-.253.4-.395.416-.736.075s-.337-.56.02-1.13c.385-.617.373-.68-.092-.502-.79.304-.645-.325.217-.93 1.04-.73 1.627-.528 2.144.74m64.78-.425c-.232.28-.28.508-.104.508.367 0 .353.983-.022 1.59-.14.226-.12.41.044.41.356 0 .35 2.17-.008 2.528-.138.137-.25-.01-.25-.325s-.14-.49-.31-.384-.404.04-.52-.147-.013-.34.227-.344c.342-.004.337-.067-.023-.296-.253-.16-.357-.458-.23-.66s.083-.37-.096-.37-.394.188-.478.417c-.11.298-.26.315-.535.06-.58-.54.437-2.685 1.55-3.27 1.06-.557 1.36-.443.757.285m-71.56-.075c-.37.59-.434 1.25-.122 1.25.146 0 .247.437.225.97s-.154.9-.294.813-.255.077-.255.363.188.526.417.533-.184.552-.917 1.2-1.004 1.025-.602.817.824-.527.936-.71.355-.332.54-.332.243.147.132.325.276.75.86 1.272l1.06.947-1.237-.145c-.68-.08-1.315-.348-1.41-.596-.143-.373-.26-.366-.665.04-.556.556-1.777.665-1.777.158 0-.183.6-.933 1.334-1.666 1.383-1.384 1.394-1.74.024-.78-.784.55-.788.546-.555-.385.153-.61.093-1.027-.172-1.19-.3-.18-.1-.55.622-1.28.566-.567.948-1.03.848-1.03s.004-.225.233-.5c.5-.603 1.147-.672.78-.083m-17.663.404c.116.305-.215.766-.88 1.226l-1.07.738.75-.83c.413-.456.75-1.008.75-1.225 0-.543.224-.497.45.092m35.55.846c0 .183.167.296.37.25.46-.104 1.64 3.338 1.377 4.022-.117.304-.053.417.16.286.194-.12.537.006.764.28.557.67-.055.66-1.38-.027-.654-.338-.944-.695-.822-1.013.125-.326.005-.458-.355-.394-.913.162-.9-.71.027-1.06.473-.18.86-.484.86-.677 0-.21-.397-.145-.983.158-1.353.7-1.686.626-.683-.152l.833-.646-.833.195c-.814.19-.818.183-.167-.336.4-.326.5-.535.23-.54-.488-.012-.204-.678.3-.678.172 0 .313.15.313.334m-64 .5c0 .275-.253.5-.563.5-.517 0-.515.035.024.43.665.487.48 1.927-.333 2.603-1.04.863-2.207-1.024-1.273-2.056.397-.438.425-.637.116-.828-.26-.16-.32-.112-.172.13s.054.31-.28.183c-.284-.11-.427-.342-.317-.52s.378-.252.598-.168.767-.05 1.216-.3c1.027-.568.983-.57.983.025m-18.86 1.117c.383.74.404 1.044.092 1.375s-.307.458.017.577c1.36.5-.198 2.704-1.596 2.26-.803-.255-2.097-2.89-1.577-3.2.195-.12.25-.492.12-.826s-.132-.506-.01-.382.442.006.708-.26c.768-.768 1.707-.573 2.244.467m72.526-.54c0 .204-.263.682-.583 1.063-.58.688-.578.69.14.082.704-.595.733-.593 1.084.063.376.702-.015 1.268-.618.896-.17-.106-.404-.04-.52.147-.315.5-1.072.406-1.297-.18-.11-.285.025-.86.3-1.277s.428-.828.344-.912.14-.176.5-.203.652.117.652.32m34.333.533c0 .152-.378.48-.84.726-.61.327-.724.523-.417.718s.273.27-.14.274c-.3.003-.672.18-.804.395-.162.262-.06.32.313.177.305-.117.892-.077 1.305.09.715.288.706.303-.19.323-.516.01-1.266.196-1.666.41-.658.35-.684.335-.27-.167.388-.47.388-.555 0-.56-.36-.004-.35-.074.043-.322.275-.173.5-.454.5-.624 0-.338 1.516-1.687 1.916-1.705.138-.006.25.114.25.266m-104.483 1.168c-.097.397-.09.533.015.303s.33-.334.497-.23c.46.284.366 1.814-.112 1.826-.254.006-.188.184.17.455.542.412.5.55-.717 1.906-.716.804-1.406 1.36-1.533 1.236s.308-.75.966-1.39 1.198-1.28 1.198-1.42-.448.173-.996.698c-1.06 1.016-1.824.927-.89-.104.305-.337.554-.78.554-.983s.337-.624.75-.932c.506-.378.56-.496.167-.362-.87.294-1.572-.086-1.344-.727.52-1.466 1.628-1.707 1.277-.277m43.625-.757c.434-.36.53-.357.55.02.02.338.07.35.195.04.43-1.063 1.12-.336.805.845-.015.052-.303-.053-.642-.234-.414-.222-.73-.214-.97.026-.455.455-1.08.073-1.075-.657.005-.467.057-.48.308-.085s.393.404.83.043m-7.475 1.52c0 .486-.6.59-1.47.257-.744-.285-.364-.715.632-.715.5 0 .84.19.84.458m8.317.155c-.32.6-.286.678.24.564.336-.073.575-.306.53-.518s.137-.302.4-.2c.557.214-.026 1.46-.683 1.46-.762 0-1.66-1.344-1.125-1.682.796-.504 1.034-.363.637.378m110.35-.155c0 .486-.6.59-1.47.257-.744-.285-.365-.715.63-.715.5 0 .84.19.84.458m-138 .44c0 .393-.65.814-.89.575s.182-.89.575-.89c.173 0 .314.14.314.314m54.866.74c.03.768-.118.904-1.103 1.02-1.183.138-1.842-.268-.975-.6.273-.105.447-.448.386-.763-.082-.427.114-.568.775-.557.722.012.9.177.917.9m63.467-.39c.092.045-.283.187-.833.316-1.102.26-1.797.076-1.175-.308.353-.218 1.57-.223 2.008-.008m-98.667.538c0 .267-.337.465-.79.465-.436 0-1.26.094-1.834.208-.697.14-1.04.078-1.04-.186 0-.217.114-.324.254-.238s.58-.017.98-.23c1.058-.565 2.433-.575 2.433-.02m118.667 0c0 .267-.337.465-.792.465-.435 0-1.26.094-1.833.208-.697.14-1.042.078-1.042-.186 0-.217.115-.324.255-.238s.58-.017.98-.23c1.057-.565 2.433-.575 2.433-.02m-50.847.154c-.12.196-.416.282-.654.2s-.71.043-1.05.3c-.708.536-1.116.61-1.116.205 0-.155.338-.445.75-.644.994-.48 2.355-.512 2.07-.05m-57.068.652l.723.674-1.07-.373c-.59-.206-.987-.51-.885-.674.266-.43.42-.384 1.232.373m88.248-.34c0 .183-.31.333-.686.333s-.594-.15-.48-.333.422-.333.686-.333.48.15.48.333m1.167 1c.113.183-.112.333-.5.333s-.613-.15-.5-.333.338-.333.5-.333.387.15.5.333m-134.833.333c0 .184-.125.334-.277.334s-.47.362-.708.805-.675.893-.973 1-.755.29-1.014.408.1-.483.82-1.334c1.2-1.447 2.152-1.978 2.152-1.213m-.568 2.157c-.33.452-.786.827-1.016.833s-.416.16-.416.344-.263.327-.584.32c-.417-.008-.203-.34.75-1.16 1.567-1.35 2.11-1.494 1.266-.336m1.234.383c0 .755-2.498 2.336-2.833 1.794-.113-.184-.085-.334.064-.334s.705-.375 1.238-.833c.94-.808 1.53-1.05 1.53-.627m-103.666 6.794v5.666H552c-4.293 0-5.675-.1-5.7-.416-.103-1.236-.137-10.455-.04-10.667.063-.138 2.656-.25 5.762-.25h5.647v5.667m28 0v5.666h-11.334V214h11.334v5.667m28.06-5.25c.108.343.085 9.84-.026 10.666-.018.138-2.583.25-5.7.25h-5.667v-5.444c0-2.995.1-5.545.223-5.667.438-.438 11.03-.254 11.17.195M465 0h20v20h-20zm430 0h20v20h-20z" fill="#142c44"/><path d="M1178.587 185.236c.415.08 1.015.076 1.334-.007s-.02-.15-.754-.145-.994.072-.58.152m82.496-.006c.32.084.846.084 1.167 0s.058-.153-.583-.153-.905.07-.584.153m-46.992 1.437c0 .825.065 1.162.144.75a4.72 4.72 0 0 0 0-1.5c-.08-.413-.144-.075-.144.75m44.185-.758c.456.082.7.315.614.563-.09.232-.032.632.127.89.196.318.265.148.214-.53-.06-.8-.23-1.004-.903-1.03-.78-.03-.784-.024-.052.108m5.836 2.09c0 1.375.06 1.938.13 1.25s.072-1.812 0-2.5-.13-.125-.13 1.25m19.024-1.874c-.106.276-.122.773-.036 1.105.095.365.173.21.2-.398.034-.775.116-.887.367-.5.194.3.325.342.328.103.008-.628-.646-.864-.86-.3m-102.306.213c-.115.186-.327.266-.47.177s-.545.067-.893.346c-.603.484-.598.492.097.155.484-.233.8-.24.936-.018.19.31-.018.455-.55.384-.12-.015-.42.23-.667.544-.394.503-.385.523.076.164.37-.288.63-.304.88-.054.434.434.9-.184.952-1.287.046-.824-.042-.925-.36-.41m79.635.05c-.167.27-.052.317.37.155.366-.14.72-.062.883.194.2.314.273.273.277-.156.006-.664-1.15-.8-1.53-.193m2.535.6c0 .18-.488.465-1.083.637-.867.25-.93.32-.314.343.503.02.695.174.554.447-.118.23.095.04.473-.417.667-.808.88-1.333.537-1.333-.092 0-.167.145-.167.323m-142.797.843c.275 1.226.465 1.492.46.64-.003-.35-.158-.864-.344-1.14-.247-.365-.278-.23-.115.5m.464-.523c0 .418.964 1.357 1.394 1.357.2 0-.008-.312-.44-.692s-.6-.604-.393-.495.488.045.603-.14-.097-.34-.477-.34-.686.14-.686.3m32.703.812c-.3.35-.245.564.2.917.312.254.463.286.335.073s-.044-.464.186-.557c.325-.13.32-.175-.017-.195-.24-.015-.344-.177-.23-.36.304-.492-.025-.405-.463.122m118.667 0c-.3.35-.246.564.2.917.312.254.463.286.335.073s-.044-.464.186-.557c.324-.13.32-.175-.018-.195-.24-.015-.343-.177-.23-.36.304-.492-.026-.405-.463.122m-147.892.177c.125.202.094.368-.07.368s-.297.245-.297.544c0 .493.04.49.412-.02.38-.518.454-.502.944.197.396.566.533.623.533.225 0-.295-.394-.794-.875-1.11s-.772-.408-.647-.205m73.854.784c-.49.67-.57.904-.21.61.546-.444 1.373-1.694 1.12-1.694-.064 0-.473.487-.91 1.083m-16.832-.416c.113.183-.066.335-.397.338-.466.004-.5.07-.15.292.32.203.343.354.078.518-.206.127-.284.377-.174.556s.02.543-.202.8c-.26.313-.276.486-.048.486.46 0 .654-.335.862-1.48.194-1.073.532-1.556.532-.76 0 .295.144.625.32.733.19.118.176-.214-.033-.813-.194-.557-.497-1.012-.673-1.012s-.228.15-.114.334m81.25.22c-.643.26-.493.744.213.69.368-.028.56-.227.464-.48-.09-.237-.187-.42-.213-.405s-.235.102-.464.194m-153.637.503c.312.175.48.458.374.63s-.07.313.08.313c.95 0 .943-1.18-.006-1.22-.806-.033-.897.024-.447.276m13.246-.12c-.014.24-.157.355-.318.256s-.29.198-.29.66c0 .83.006.833.483.152.266-.38.41-.873.318-1.098-.123-.303-.172-.296-.192.03m139.544.626c.168.438.08.502-.43.31s-.555-.158-.235.164c.274.277.627.3 1.09.103.68-.303.68-.308.023-.717-.57-.355-.63-.336-.448.14m-138.014.326c-.097.097-.096.387.003.644s.03.467-.154.467-.428.247-.544.547c-.168.438-.117.47.256.16.256-.212.708-.293 1.005-.18.325.125.617.004.735-.303.115-.3.478-.456.88-.38.377.073.578.025.446-.107s-.34-.242-.462-.245-.372-.092-.555-.198c-.66-.384-1.44-.58-1.61-.408m76.444.087c0 .17-.263.377-.583.46-.492.13-.5.16-.04.19.298.022.73-.186.957-.46.287-.345.3-.5.04-.5-.206 0-.374.14-.374.31m-20.885.25c.097.097.04.536-.128.975-.2.527-.185.8.044.8.197 0 .255.292.133.675-.147.464-.076.647.228.584s.43.252.402.984c-.022.593.1.99.272.883s.236-.392.143-.635.075-.64.373-.883c.47-.382.513-.36.318.16-.14.374-.096.52.117.388.19-.116.256-.487.15-.822s-.045-.703.138-.816.243-.44.133-.725c-.16-.418-.35-.335-.973.428-.605.74-.777.82-.786.363-.007-.32.16-.584.373-.584s.106-.307-.24-.69-.48-.643-.302-.583a.43.43 0 0 0 .491-.194c.092-.166-.1-.342-.447-.392s-.535-.01-.438.086m34.962.774c0 .642.07.904.153.584s.084-.846 0-1.167-.153-.058-.153.583m-104.744-.21c0 .31-.262.674-.583.805-.678.278-.964 1.134-.293.877.573-.22 1.393-1.732 1.1-2.026-.122-.122-.223.032-.223.344m88.4-.055c-.22.22-.4.548-.4.73s.238.04.528-.317c.52-.638.524-.637.313.02-.17.535-.13.584.206.25.28-.278.31-.528.087-.75s-.467-.2-.734.067m63.288.46c.24.288.227.487-.04.653-.282.173-.263.315.067.524.307.195.324.288.052.292-.22.003-.553-.258-.74-.578-.324-.556-.34-.556-.35 0-.005.32.158.583.364.583.27 0 .265.132-.016.47-.267.322-.28.54-.04.687.33.204.478-.013.39-.574-.073-.463.647-.254.838.244.106.277.54.464.99.427.953-.08.945-.055.236-.63-.383-.31-.483-.324-.313-.04.138.23.09.417-.11.417-.467 0-1.016-1.445-.86-2.26.072-.374-.067-.63-.344-.63-.333 0-.367.118-.12.415m2.78.272c-.098.256-.128 1.043-.065 1.75.106 1.19.126 1.157.272-.465.162-1.786.1-2.11-.207-1.285m-226.735 2.448l-.066 2.747-28.167.18 14.094.08c11.546.065 14.125-.002 14.266-.37.094-.246.12-1.558.056-2.916l-.117-2.47-.066 2.746m5.747.254l.02 2.667 28 .01-27.806-.185-.234-5.16.02 2.667m216.598-1.833c0 .64.068.904.152.583s.084-.846 0-1.167-.152-.058-.152.584m-152.116-.417c-.02.137-.012.512.02.833s-.11.584-.315.584-.29-.134-.19-.296-.265-.362-.813-.443c-1.28-.188-1.258-.13.28.67l1.278.666v-1.133c0-1.008-.16-1.545-.26-.882m92.705.063c0 .25-.217.342-.528.222-.324-.124-.477-.05-.396.194.213.638.824.68 1.057.07.12-.31.137-.64.042-.737s-.175.017-.175.25m-76.333.373c0 .194-.174.246-.385.116-.256-.16-.294-.09-.112.203.205.332.114.38-.365.2-.515-.197-.557-.162-.218.18s.562.282 1.157-.314c.406-.405.554-.737.33-.737s-.407.16-.407.353m1-.086c0 .22.16.4.353.4s.258.152.143.34-.372.238-.57.115c-.232-.144-.264-.066-.09.218.197.32.122.383-.27.233-.3-.115-.647-.043-.773.16-.132.214-.078.277.128.15.196-.12.432-.032.526.2.113.28.26.304.445.074.15-.2.563-.34.914-.333s.7-.214.776-.49c.12-.445.097-.445-.218 0-.334.473-.39.438-.488-.317-.07-.532-.875-1.222-.875-.75m158 .067c0 .17-.263.23-.584.13-.555-.173-.555-.164 0 .193.32.207.58.556.58.776-.004.244-.13.206-.33-.1-.194-.3-.325-.342-.328-.103-.003.218.152.494.345.613.69.427-.343 1.184-1.08.8-.637-.34-.638-.37-.05-.845.566-.456.555-.465-.148-.124-.813.395-.74.8.24 1.325.477.256.8.138 1.48-.543.97-.97 1.13-1.942.37-2.234-.275-.105-.5-.05-.5.12m-173.46 1.235c-.515.69-.546.89-.17 1.12.63.4 1.037-.1.906-1.117l-.1-.842-.626.838m23.376-.333a4.78 4.78 0 0 0 1.5 0c.413-.08.075-.145-.75-.145s-1.162.065-.75.145m7.834.003a7.4 7.4 0 0 0 1.833 0c.504-.076.092-.14-.917-.14s-1.42.063-.916.14m46.333-.01c.32.084.846.084 1.167 0s.058-.152-.584-.152-.904.068-.583.152m2.333 0c.32.084.846.084 1.167 0s.058-.152-.583-.152-.905.068-.584.152m9.788.164c.165.268.043.312-.4.143-.484-.184-.545-.15-.253.145.258.26.572.283.953.07.526-.294.527-.334.015-.53-.37-.14-.475-.084-.315.174m24.192-.168c.31.082.63.402.71.71.105.4.16.345.187-.187.03-.577-.134-.74-.71-.71-.53.027-.586.082-.187.187m-117.67.513c-.573.573-.484.893.233.84.345-.026.6-.237.565-.47-.098-.67-.37-.796-.798-.37m114.356-.176c.32.084.846.084 1.167 0s.058-.152-.584-.152-.904.07-.583.152m65.338.01c.507.076 1.257.074 1.667-.005s-.005-.14-.922-.14-1.252.067-.745.144m-146.47.512c.168.168.66.25 1.094.18.667-.105.62-.152-.306-.305-.662-.1-.973-.06-.788.124m97.22-.093c-.263.425.283.68.788.366.335-.207.316-.308-.088-.463-.285-.1-.6-.066-.7.097m21.494.03c-.705.208-.728.25-.15.28.376.02.853.203 1.06.41.28.28.356.24.298-.157-.11-.746-.26-.813-1.21-.533m-127.167.226c1.2.176 1.606.713 1.065 1.41-.347.446-.325.454.18.06.902-.707.184-1.728-1.172-1.665l-1.07.05 1 .147m66.834-.027c0 .46.976 1.09 1.18.76.122-.197.127-.453.01-.568-.26-.26-1.2-.41-1.2-.193m-89.586.628c-.412.288-.9.43-1.084.317s-.424.027-.534.312-.323.443-.475.35-.35-.05-.442.1.123.29.477.318c.367.027.644-.163.644-.443 0-.393.138-.417.688-.122.52.277.6.475.326.804s-.2.478.314.612c.475.125.617.358.48.79-.182.575-.164.577.277.043.3-.363.59-.456.8-.254s.336.077.367-.34c.028-.36-.09-.742-.258-.846s-.224.03-.12.3c.173.452-.02.488-1.196.223-.092-.02.283-.407.833-.857s.823-.82.607-.822-.62.225-.895.5c-.285.285-.587.366-.698.187-.107-.173.053-.454.355-.623s.493-.48.422-.692c-.09-.268-.355-.226-.877.14m17.586-.16c0 .194-.15.26-.336.145s-.425.026-.535.312-.308.452-.442.37-.243.09-.243.386c0 .442.095.42.535-.123.294-.363.72-.6.944-.523s.4-.1.4-.392-.075-.527-.166-.527-.167.16-.167.353m8.778.063c.11.32.06.584-.11.584s-.215.255-.095.566c.137.358.266.418.35.165.074-.22.27-.317.44-.214.48.297.336-.285-.25-1.017-.434-.542-.496-.557-.333-.084m9.235.067a1.68 1.68 0 0 0-.332 1.08c.14 1.36-.007 1.595-.533.844-.622-.888-1.15-.96-1.143-.157.004.463.065.488.298.12s.37-.318.673.25c.445.832 1.024.94 1.024.192 0-.285.134-.437.297-.336s.36-.35.436-1c.154-1.324-.125-1.7-.72-.994m8.492-.21c-.094.095-.17.335-.167.533s.156.136.34-.14c.29-.436.378-.425.678.084.19.32.557.583.817.583.308 0 .4.204.263.583-.225.63-.173.593.575-.397.306-.405.333-.554.072-.397-.593.356-.518-.14.09-.586.4-.292.2-.377-.995-.403-.825-.018-1.577.045-1.672.14m12.018.37c-.552.6-.552.637.004.556.32-.047.62-.336.666-.642.103-.705.038-.697-.67.086m106.65-.37c-.095.095-.17.335-.167.533s.156.136.34-.14c.29-.436.378-.425.678.084.19.32.556.583.816.583.308 0 .4.204.264.583-.225.63-.173.593.575-.397.305-.405.333-.554.072-.397-.593.356-.518-.14.088-.586.4-.292.19-.377-.994-.403-.825-.018-1.577.045-1.672.14m15.583-.033c.506.076 1.256.074 1.666-.005s-.004-.14-.92-.14-1.252.067-.745.144M1121.333 196c0 1.128.252 1.23 1.187.482.62-.498.617-.504-.103-.155-.6.295-.75.268-.75-.15 0-.28.262-.514.583-.516.5-.005.51-.053.083-.33-.807-.52-1-.393-1 .667m59.53-.714c-.145.234-.174.514-.065.623.238.24-1.182 1.3-1.573 1.163-.15-.048-.178.068-.06.26.228.368.64.213 1.585-.6.453-.39.583-.403.583-.06 0 .242.07.37.156.284s.04-.592-.104-1.125c-.177-.664-.342-.836-.522-.544m61.87.398c-.244.4-.27.65-.07.65.185 0 .336-.168.336-.374 0-.25.174-.23.525.062.538.446 1.13-.002 1.13-.854 0-.184-.136-.118-.302.145-.23.363-.413.388-.76.1-.353-.292-.548-.23-.862.272m-116.63-.136c-.22.09-.303.415-.188.724.2.507.15.513-.416.06-.502-.4-.57-.406-.34-.026.22.365.14.422-.352.25-.6-.21-.604-.197-.05.234.58.452.5 1.543-.128 1.543-.165 0-.12.3.1.644.32.51.544.574 1.087.31.512-.25.475-.162-.15.35-.57.467-.675.684-.33.69.277.004.668-.255.868-.576.34-.543.58-1.19.37-1-.05.046-.33-.14-.625-.415-.56-.524-.47-1.365.134-1.24.195.04.383-.34.417-.844s.048-.905.03-.9-.21.1-.43.188m6.537.035l-.1.985c-.045.404.04.66.188.568s.6-.002 1.026.2c.695.337.708.328.155-.118-.33-.266-.625-.8-.654-1.185-.05-.648-.542-1.015-.605-.45m67.772.75c0 .642.068.904.152.584s.084-.846 0-1.167-.152-.058-.152.583m53.01-.505c-.227.26-.295.543-.15.633s.445-.128.666-.483c.464-.742.1-.848-.516-.15m-117.99.422c-.12.32-.352.675-.518.787s-.028.276.31.364c.487.127.61-.033.61-.787 0-1.093-.1-1.184-.402-.364m99.38.417c0 .608.27.812.94.706.448-.07.263.725-.333 1.434-.578.687-.577.688.133.088.734-.62 1.046-2.895.397-2.895-.176 0-.214.188-.084.417.188.333.145.333-.214 0-.63-.584-.84-.52-.84.25m27.528-.397c-.002.24-.12.365-.26.28s-.273.28-.295.813c-.023.562.13.97.366.97.68 0 .866-.41.43-.95-.33-.408-.33-.46.003-.26.495.297.536-.09.084-.79-.235-.363-.325-.38-.33-.063m-107.96.51c-.204.246-.265.554-.134.684s-.02.138-.336.017c-.33-.126-.574-.063-.574.15 0 .203-.235.37-.523.37-.47 0-.472.052-.015.5.473.472.403 1.65-.08 1.353-.118-.073-.215.214-.215.637s.112.7.25.615.25-.337.25-.56c0-.62 1.94-2.208 2.15-1.763.097.206.076 0-.047-.46s-.23-1.096-.235-1.416c-.013-.7-.02-.703-.49-.136m40.145.386c.392 2.02 2.052 2.964 3.323 1.9.362-.306.597-.52.52-.477s-.34-.086-.585-.3c-.334-.277-.448-.266-.448.043 0 .317-.137.31-.583-.036-.466-.36-.454-.3.058.3.64.75.64.75-.167.615-.444-.074-.77-.303-.724-.507s-.085-.333-.3-.287-.582-.442-.837-1.084c-.427-1.078-.448-1.1-.268-.166m26.31-.167c-.588.65-.582.667.262.667.476 0 .968-.166 1.094-.37.157-.254-.018-.29-.56-.12-.705.224-.74.192-.335-.298.648-.78.264-.68-.46.12m23.794-.445c-.923.246-1.27 1.497-.675 2.445.52.83.52.83-.182.228-.412-.354-.787-.47-.906-.278-.11.18-.013.403.217.496.317.13.297.256-.08.524-.308.217-.347.355-.103.358a.76.76 0 0 0 .594-.313c.108-.176.398-.242.643-.148s.54-.07.653-.365c.118-.308.067-.45-.12-.336-.464.287-.18-1.714.33-2.33.23-.277.362-.486.294-.465s-.367.103-.664.183m28.417.226c-.204.246-.265.554-.135.684s-.02.138-.336.017c-.33-.126-.573-.063-.573.15 0 .203-.236.37-.524.37-.47 0-.47.052-.014.5.472.472.402 1.65-.08 1.353-.12-.073-.215.214-.215.637s.112.7.25.615.25-.337.25-.56c0-.62 1.94-2.208 2.15-1.763.097.206.076 0-.047-.46s-.23-1.096-.235-1.416c-.013-.7-.02-.703-.49-.136m-129.04.247c.003.26.153.697.334.972.262.397.308.347.226-.24-.12-.853-.568-1.44-.56-.73m27.442.158c-.1.285-.385.448-.61.36-.254-.097-.397.12-.374.564.024.45-.135.686-.42.625-.3-.063-.386.1-.25.444.115.298.208.604.208.68s.133.14.296.14.276-.216.25-.48.104-.475.287-.467.29.163.24.345c-.14.498.696.13.866-.382.1-.27-.004-.35-.24-.202-.4.247-.302-1.108.13-1.81.115-.186.12-.338.013-.338s-.287.233-.396.52m24.194-.436c-.285.933-.21 1.25.215.898.26-.215.388-.523.287-.686-.172-.28-.446-.395-.502-.212m3.026.325c0 .164-.188.188-.417.054s-.134.08.21.473.758.635.917.537c.355-.22.38-.487.04-.433-.703.11-.813-.086-.27-.484.527-.385.535-.444.064-.444-.3 0-.544.134-.544.297m61.666.06c0 .66.643 1.023 1.065.6.23-.23.115-.46-.362-.716-.567-.303-.703-.28-.703.116m23.41.532c0 .64.07.904.152.583s.084-.846 0-1.167-.152-.058-.152.584m-57.186-.198c-.1.257.08.702.394.988.527.476.578.458.61-.22.02-.406-.037-.55-.125-.32s-.306.33-.483.22c-.197-.122-.17-.38.07-.67.236-.284.256-.47.05-.47-.186 0-.42.21-.518.47m-40.192.663c-.582.62-.65.855-.308 1.053.243.14.328.13.19-.023s.074-.628.475-1.054.653-.775.56-.775-.504.36-.917.8m65.002-.227c-.407.44-.374.475.26.274.5-.162.696-.1.63.213-.137.663-.708.96-.984.51-.146-.235-.223-.1-.19.3l.053.704 1.043-.684c.88-.577 1.604-1.884.75-1.356-.16.1-.473.033-.695-.148-.274-.224-.55-.168-.867.176m28.723.762c0 .825.065 1.162.144.75a4.72 4.72 0 0 0 0-1.5c-.08-.413-.144-.075-.144.75m-139.052-.095c.022.527.103.684.187.363.087-.328.35-.488.628-.38.72.276.577-.145-.187-.554-.596-.32-.663-.257-.628.572m20.92-.683c-.023.06-.08.26-.125.444s-.12.446-.164.584-.068.348-.052.468-.192.4-.46.624-.477.65-.463.948c.022.454.056.46.21.043.1-.275.5-.838.865-1.25s.558-.75.406-.75-.027-.275.277-.61c.47-.52.48-.61.05-.61-.275 0-.52.05-.543.11m10.375.104c-.437.276-.426.4.086.902.56.56.582.544.51-.32l-.086-.902a59.84 59.84 0 0 0-.511.321m1.05.48c-.027.535-.307 1.285-.62 1.666-.56.68-.557.68.194-.01.555-.51.725-.967.62-1.667l-.144-.964-.05.974M1134 198.4c0 .147.29.267.647.267s.72-.12.812-.267-.2-.267-.647-.267-.812.12-.812.267m20.475.044c-.094.245-.375.445-.624.445s-.377-.2-.284-.445.375-.444.625-.444.377.2.283.444m78.197.084a2.43 2.43 0 0 0 .343 1.139c.247.365.278.23.115-.5-.274-1.226-.465-1.492-.458-.64m9.198.305c.274 1.226.465 1.492.458.64a2.43 2.43 0 0 0-.343-1.139c-.247-.365-.278-.23-.115.5m31.272-.39c-.094.245-.375.445-.625.445s-.377-.2-.283-.445.375-.444.625-.444.377.2.283.444m-139.606.747c.152.605.1.835-.126.7-.194-.12-.44-.03-.545.2s-.108.08-.006-.33c.107-.43.032-.75-.175-.75-.403 0-.354 1.96.056 2.212.462.285.277.677-.323.682-.32.003-.696-.16-.833-.36s-.153.16-.036.8c.26 1.42.452 1.71.452.682 0-.675.065-.7.564-.306.322.26.463.29.328.064s.065-.605.46-.882c.505-.353.584-.558.29-.74-.315-.195-.3-.337.06-.62.615-.482.647-1.278.07-1.816-.4-.365-.427-.3-.235.475m9.984-.492c.18.3.09.35-.3.2-.305-.117-.554-.067-.554.1 0 .287.723.472 1.416.363.594-.094.177.97-.628 1.603-.64.503-.73.69-.333.69.3 0 .545-.15.545-.334 0-.66.623-.316.755.417.074.412.146-.01.158-.94.02-1.346-.112-1.774-.646-2.107-.53-.33-.616-.33-.414-.004m34.388-.116c-.072.138-.022 1.15.11 2.25l.242 2-.04-2.25c-.04-2.26-.07-2.46-.313-2m1.83.177c.43.35.478.558.19.846-.2.21-.312.454-.225.54s.337-.132.557-.485c.342-.547.29-.694-.346-1.003-.665-.322-.684-.31-.175.102m-15.26.714c-.112.443-.132 1.08-.045 1.416.095.368.173.207.196-.407.02-.56.22-1.196.44-1.416.304-.304.305-.4.006-.4-.216 0-.485.363-.596.807m-57.076.208c-.224.358-.63.65-.904.65s-.485.263-.47.584c.016.348.094.415.195.166.092-.23.344-.416.56-.416.393 0 1.37-1.294 1.146-1.518-.065-.065-.302.174-.526.533m-2.957.12c0 .257.2.39.445.297s.444-.304.444-.468-.2-.298-.444-.298-.445.21-.445.47m3.546.376c-.23.278-.322.6-.204.72s.214.03.214-.194.143-.32.32-.212.242.397.148.643c-.097.25.103.517.46.6.373.097.63-.008.63-.258 0-.232-.194-.348-.432-.257-.288.11-.387-.062-.298-.525.17-.885-.295-1.177-.836-.526m15.5.312c-.55.45-.812.825-.583.83s.416-.138.416-.32.16-.333.353-.333.24.187.103.416c-.17.283-.07.27.314-.04.486-.395.564-.383.564.083 0 .662.453.7.968.08.306-.368.2-.505-.473-.676-.47-.12-.766-.36-.656-.54.312-.504.076-.387-1.006.5m38.29.03c-.48.733-.916 3.717-.48 3.28.104-.104.195-.3.202-.412s.197-.556.424-.965c.354-.636.34-.714-.106-.543-.436.167-.46.073-.16-.59.5-1.117 1.93-1.182 1.808-.083-.048.438.03.723.175.634.3-.19.358-1.83.054-1.867-.114-.014-.475-.076-.802-.138-.346-.066-.812.22-1.117.685m37.117.005c-.448.6-.474.75-.11.61a1.39 1.39 0 0 0 .685-.708c.312-.813.075-.772-.576.1m24.838.14c0 .64.07.904.152.583s.084-.846 0-1.167-.152-.058-.152.584m-37.72-.03c-.444.342-.843.86-.886 1.152-.11.743 1.414-.376 1.64-1.205.192-.705.237-.708-.754.053m49.247.036c-.528.58-.523.614.084.568.378-.03.644-.294.644-.644 0-.71-.012-.7-.728.076m-65.312.088c.16.16.723.238 1.25.173.882-.1.858-.133-.292-.293-.717-.1-1.125-.048-.957.12m82.04.124c-.46.242-.61.44-.333.44.574 0 1.558-.557 1.323-.75-.086-.07-.532.07-1 .3m-18.766.338c.094.245.005.445-.198.445s-.37.162-.37.36c0 .584.747.164 1.02-.573.17-.464.113-.677-.187-.677-.24 0-.36.2-.266.444m8.68.074c-.14.535-.505.635-2.424.664-1.243.018-2.337.1-2.43.203s1.022.17 2.48.17c2.586 0 2.652-.02 2.72-.833.08-.984-.1-1.097-.344-.204m39.425-.42c-.002.207.22.562.495.79s.5.557.5.73.225.54.5.816.5.365.5.2-.112-.414-.25-.552-.25-.575-.25-.972c0-.42-.21-.722-.5-.722-.275 0-.6-.15-.745-.334-.156-.213-.246-.198-.25.043m-85.264.643c-.78.547-.983 1.148-.388 1.148.194 0 .267-.14.162-.31s-.04-.404.147-.52.338-.05.338.143.14.353.313.353.3-.3.262-.666-.06-.667-.07-.667-.355.234-.763.52m24.8-.25c-.145.235-.033.485.27.602.285.11.42.37.297.58s.104.096.502-.254c.75-.657.974-1.06.4-.698-.183.113-.335.01-.338-.23-.004-.346-.065-.343-.293.018-.234.37-.315.372-.434.016-.11-.334-.205-.343-.395-.035m29.794.398c.333.215.36.324.083.328-.23.003-.4.343-.378.755.03.57.075.6.192.163.084-.323.286-.506.448-.405.17.105.163.53-.016 1.004s-.187.82-.013.82c.454 0 2.354-1.996 2.324-2.442-.017-.258-.085-.245-.2.04-.14.35-.274.35-.724 0-.492-.385-.502-.37-.093.152.634.808-.05.736-.79-.083-.332-.367-.768-.664-.968-.662s-.14.15.135.33m12 .02c0 .194-.125.276-.278.182s-.278.014-.278.242.253.414.56.414c.375 0 .5-.198.406-.595-.17-.656-.41-.797-.41-.243M1141 202.6c0 .513-.18 1.113-.4 1.333-.31.31-.29.4.1.4.35 0 .526-.403.58-1.333.043-.733-.003-1.333-.102-1.333s-.18.42-.18.933m37.898-.71c.22.085.307.407.197.716-.21.59-.153.555.482-.285.32-.424.26-.52-.344-.55-.403-.02-.554.034-.335.12m102.26.268c.55.44.592.633.257 1.17-.28.448-.293.7-.046.863s.25.326-.007.582c-.46.46-.465.896-.01.896.194 0 .24-.188.103-.417-.194-.322-.13-.32.274.01.434.35.56.332.73-.11.308-.803.25-1.08-.21-1.028-.23.026-.417-.103-.417-.287s.097-.3.216-.26c.562.187-.22-1.302-.84-1.6-.694-.335-.695-.33-.05.186m-173.155.76c-.395.504-.632.742-.526.53.234-.47-.673-.383-1.17.113-.448.447.754.815 1.386.424.267-.165.612-.053.895.29.253.308.372.382.264.166s-.044-.488.142-.604c.223-.138.23-.417.018-.812-.178-.332-.228-.698-.112-.814s.123-.2.016-.2-.518.412-.914.917m25.622-.75a5.55 5.55 0 0 0-.083.512c-.023.2-.246.47-.494.625-.315.195-.34.348-.084.507.203.126.37.07.37-.125s.16-.353.353-.353.24.185.098.417c-.153.25.066.204.545-.112 1.204-.794 1.266-1.377.12-1.126-.726.16-.83.125-.45-.147.34-.24.366-.356.083-.36-.23-.003-.435.07-.458.162m21.804 1.333c.002.917.067 1.252.144.745s.074-1.256-.005-1.666-.142.004-.14.92m30.222-.98c-.24.3-.273.474-.074.416.43-.123.49.177.218 1.06-.112.365-.335.582-.496.483s-.19.082-.067.404c.126.328.28.416.35.202s.305-.34.522-.288.282.03.145-.046c-.413-.23-.284-.827.324-1.5.453-.5.47-.612.083-.527-.27.06-.453-.08-.407-.308.11-.558-.078-.525-.6.102m34.642-.436c-.233.475-.072 2.523.194 2.477.2-.033.295.24.23.607s-.014.568.11.447c.43-.422.41-1.453-.04-2.105-.555-.804-.59-1.3-.07-.977.24.147.295.09.147-.147-.222-.36-.478-.494-.572-.302m23.457.147c.32.084.846.084 1.167 0s.058-.153-.584-.153-.904.07-.583.153m30.345 1.27c.003.917.068 1.252.144.745s.075-1.256-.004-1.666-.142.004-.14.92m-110.762-.77c0 .217-.337.77-.75 1.225l-.75.83 1.07-.738c.666-.46.997-.92.88-1.226-.226-.59-.45-.635-.45-.092m-137.596.185l11.236.095.234 5.158-.04-5.334-22.667-.013 11.237.094m17.152-.025c-.307.307-.282 5.368.028 5.56.137.085.2-1.104.142-2.643l-.108-2.798 22.55-.185-11.194-.08c-6.157-.043-11.295.022-11.417.144m178.6.327c-.725.53.22.55 1.065.022.213-.133.465-.087.558.102s.136.165.094-.053c-.112-.577-.977-.613-1.717-.07m42.254.45c0 .64.07.904.152.583s.084-.846 0-1.167-.152-.058-.152.584m-139.212-.386c-.115.187-.047.44.15.563.513.316.844-.117.416-.545-.24-.24-.426-.245-.567-.018m89.212.72c0 .642.07.904.152.583a2.73 2.73 0 0 0 0-1.166c-.083-.32-.152-.06-.152.583m48.868-.598c.245.313.367.695.272.85s-.036.5.133.765c.23.366.307.27.31-.392.003-.482-.257-1.082-.578-1.333-.525-.412-.54-.4-.138.11m21.14.765c.003.733.072.994.15.58s.077-1.015-.006-1.333-.15.02-.145.754m-103.87.027c.445.68.434.764-.112.906-.458.118-.414.165.182.195.54.026.73-.106.6-.42-.097-.253-.001-.637.214-.853.3-.302.242-.337-.247-.15-.397.15-.56.117-.432-.09.114-.184.002-.335-.25-.335-.376 0-.37.132.035.75m18.9-.453c.106.34-.054.71-.39.907-.455.265-.47.333-.07.337 1.033.01 1.37-.48.806-1.17-.44-.54-.497-.55-.347-.073m62.744.12c-.1.288.024.747.298 1.022s.5.347.5.16-.166-.44-.37-.565c-.263-.163-.253-.3.036-.478.256-.158.282-.326.07-.456-.184-.114-.425.028-.535.316m27.54.473c0 .642.07.904.153.584s.084-.846 0-1.167-.153-.058-.153.583m-89.294.102c.028.46.188.75.357.645s.22.04.112.318.092.94.44 1.47.637.807.638.614-.156-.508-.35-.7-.415-.85-.492-1.458c-.17-1.34-.78-2.107-.707-.89m-12.827.012c.204.246.26.57.124.72s-.075.175.135.055c.328-.187.83.448.923 1.167.016.122.104.272.195.333s.13.05.083-.028.123-.377.377-.667c.3-.342.366-.76.19-1.194-.224-.552-.275-.568-.294-.093-.015.367-.202.504-.52.38-.274-.105-.4-.348-.282-.54.126-.204.056-.25-.17-.112-.21.13-.385.08-.385-.115s-.168-.353-.374-.353c-.275 0-.276.118-.003.447m47.27.136c-.5.51-.623.52-.9.084-.174-.275-.318-.33-.32-.124-.005.378.946 1.33 1.086 1.088 1.035-1.798 1.057-1.97.135-1.048m-128.882-.023c.018.468.99 1.594.99 1.147 0-.232-.225-.646-.5-.92s-.495-.377-.49-.226m1.323.16c0 .193.225.264.5.158.662-.254.632.08-.084.922-.555.655-.555.666 0 .236.32-.25.584-.34.584-.204s.225.062.5-.166c.372-.3.5-.315.5-.02 0 .216.15.3.333.187s.333-.372.333-.575-.098-.27-.22-.15-.405.065-.633-.123c-.598-.497-1.814-.673-1.814-.264m4.045.002c-.025.306-.142.83-.26 1.166-.167.472-.122.525.195.233.226-.208.343-.733.26-1.167s-.17-.538-.195-.232m2.173.22c-.303.335-.547.748-.542.917s.168.036.36-.295c.295-.508.437-.534.906-.167.487.38.505.368.143-.095-.228-.292-.315-.63-.195-.75s.143-.22.05-.22-.42.275-.722.6m10.235-.2c-.093.15-.046.233.105.183s.312.058.358.242a.25.25 0 0 1-.25.333c-.29 0-.426.518-.198.747.044.043.48-.34.97-.85l.89-.93h-.853c-.47 0-.93.123-1.024.275m157.297.758c.004.733.072.994.152.58s.077-1.014-.007-1.333-.148.02-.145.754m-129 .333c.004.734.072.994.152.58s.077-1.015-.007-1.334-.148.02-.145.754m100.34-.5c-.027.367.073.667.224.667s.352-.3.448-.667c.102-.39.01-.666-.224-.666-.218 0-.42.3-.448.666m18.326.5c.004.734.072.994.152.58s.076-1.015-.007-1.334-.15.02-.145.754m-160.857.236c-.484.85-.668.967-.917.58-.237-.368-.287-.306-.208.258.056.408.23.858.387 1s.165.052.018-.2c-.182-.315-.12-.41.197-.306.254.085.463.35.463.586s.375.656.833.93c.828.495.83.494.145-.126-.575-.522-.784-1.17-.498-1.54.104-.135.355-2.25.267-2.248-.044.001-.353.48-.687 1.067m112.857-.253c-.043.624-.018.632.288.094.185-.325.476-.504.648-.397s.313.043.313-.14c0-.662-1.2-.237-1.25.442m60.583-.34c0 .26-.21.524-.468.583-.4.092-.4.17 0 .537.385.354.468.34.468-.083 0-.282.125-.513.277-.513s.278-.225.278-.5-.125-.5-.278-.5-.277.214-.277.476m-164.204.13c.093.15-.147.545-.534.876l-.703.603.723.387c.503.27.618.494.376.735s-.2.348.132.348c.467 0 .454-1.224-.02-1.993-.107-.174.013-.24.268-.148s.42.348.37.568.06.306.246.19c.214-.132.142-.51-.196-1.025-.476-.726-1.083-1.223-.662-.542m42.88.107c-.005.302.197.627.45.724.488.188 1.207-.35 1.207-.902 0-.18-.204-.052-.453.29-.44.6-.462.6-.823-.02-.308-.532-.372-.547-.38-.09m99.824-.048c-.32.52.585 1.498 1.416 1.527 1.11.04.91-.41-.286-.65-.742-.15-.98-.35-.844-.71.217-.564.028-.676-.286-.168m-118.13.303c-.374.237-.343.354.167.617.697.36 1.462.202 1.462-.3 0-.18-.15-.233-.334-.12s-.333.047-.333-.147c0-.427-.34-.444-.962-.05m91.792-.027c.09.1-.006.368-.213.618-.302.364-.257.41.224.224.446-.17.53-.117.33.21-.182.294-.144.362.112.203.21-.13.385-.053.385.17s.096.312.214.195.03-.436-.195-.707c-.353-.425-.27-.453.597-.205.787.226.97.19.836-.157-.095-.246-.46-.39-.812-.323s-.64.007-.64-.136-.225-.258-.5-.258-.427.073-.337.164m17.987.563c.064.584-.172 1.036-.78 1.488l-.87.648.833-.185c.458-.102 1.096-.18 1.416-.175.91.017 1.363-1.115.66-1.647-.477-.36-.51-.36-.185.006.48.543.21 1.378-.373 1.154-.253-.097-.38-.563-.312-1.145.063-.54-.02-.982-.183-.982s-.256.377-.206.838m-100.68-.126c-.153.25-.096.3.157.145.288-.178.338-.007.182.615-.18.716-.1.86.467.86.376 0 .792.175.924.4.17.272.05.317-.397.147-.486-.186-.546-.15-.25.148.5.503 1.267.073.83-.465-.338-.414.377-1.35.748-.978.11.11.202.046.202-.145s-.384-.347-.853-.347c-.587 0-.798.143-.677.458.102.267-.04.46-.336.46-.353 0-.45-.2-.3-.64.23-.725-.318-1.244-.686-.65m68.296.06c-.112.18-.04.23.158.106s.45-.08.56.095-.07.473-.394.662c-.396.23-.44.347-.133.354.388.008.388.094 0 .564-.413.502-.387.518.27.167.4-.213 1.15-.398 1.666-.41.895-.02.904-.035.19-.323-.413-.166-1.013-.21-1.334-.096-.476.167-.506.122-.166-.244.23-.247.417-.62.417-.827 0-.464-.953-.502-1.233-.05m50.37-.06c-.154.25-.097.3.157.145.287-.178.338-.007.182.615-.18.716-.1.86.467.86.376 0 .79.175.924.4.168.272.048.317-.397.147-.487-.186-.546-.15-.25.148.5.503 1.267.073.828-.465-.338-.414.378-1.35.748-.978.112.11.203.046.203-.145s-.384-.347-.853-.347c-.587 0-.798.143-.677.458.102.267-.04.46-.337.46-.352 0-.45-.2-.31-.64.23-.725-.318-1.244-.686-.65m-150.583.177c-.348.347-.26.777.158.777.21 0 .592.263.852.584.43.53.44.517.122-.14-.258-.534-.24-.773.065-.914.228-.104.058-.1-.377.01-.533.134-.718.08-.564-.17.25-.406.094-.496-.256-.146m21.778.47c-.386.27-.32.3.292.126.59-.167.725-.117.532.196-.162.262-.125.337.098.2.197-.12.584.006.86.282s.693.503.925.503-.087-.375-.708-.833c-1.28-.944-1.315-.952-2-.473m-2.77.817c-.514.452-.776.823-.583.823h.52c.09 0 .13-.06.083-.132s.202-.447.552-.833c.848-.938.58-.87-.57.142m40.04.17c-.4.527-.834.882-.986.788s-.187.062-.078.346.52.5.913.48c.55-.03.583-.073.14-.2-.46-.12-.493-.24-.166-.593.224-.243.52-.375.654-.293s.145-.12.02-.45c-.184-.49-.137-.53.255-.212.37.3.628.28 1.126-.083.355-.26.505-.484.332-.498s-.58-.077-.907-.14c-.356-.068-.88.272-1.303.846m-37.603.318c-.242.452-.246.667-.012.667.2 0 .345-.234.345-.52 0-.308.157-.422.385-.282.238.148.294.092.147-.146-.327-.53-.453-.49-.865.28m69.978.193c-.238.286-.233.483.014.636.197.12.316.03.266-.205s.083-.434.297-.442c.593-.023.85-.404.273-.404-.278 0-.66.187-.85.415m-188.812 11.14c0 6.233.113 11.333.25 11.333s.25-5.1.25-11.333-.112-11.334-.25-11.334-.25 5.1-.25 11.334m157.966-10.945c-.22.355.14.945.574.945.183 0 .24-.15.127-.334-.33-.533.71-.384 1.167.167.35.424.27.506-.543.54-.6.024-.732.097-.355.195 1.27.328 1.735-.177.942-1.02-.73-.778-1.597-1-1.912-.492m106.27.144c-.36.39-.308.45.316.353.4-.062.802-.325.872-.583.105-.39.073-.394-.192-.015-.184.262-.37.31-.442.116s-.302-.145-.554.13m-230.254 10.8c0 6.14.045 8.654.1 5.583s.055-8.096 0-11.167-.1-.558-.1 5.584m198.158-10.626a.93.93 0 0 1 .131.833c-.097.253-.024.46.163.46.444 0 .304-.913-.205-1.336-.278-.232-.305-.22-.09.044m-136.796.3c.224.362-.696 1.013-1.03.73-.16-.135-.09.016.155.337s.528.583.628.583.08-.1-.044-.225.08-.55.45-.945c.517-.55.56-.72.185-.72-.27 0-.425.108-.343.24m.74.494c-.674.9-.755 1.3-.194.953.258-.16.322-.063.2.28-.212.552.516.625.994.1.143-.156.085-.185-.13-.063-.526.302-.76-.472-.373-1.227.47-.91.18-.935-.488-.043m96.915-.176c-.318.514.564.715 2.54.578l1.794-.124-2.103-.06c-1.304-.04-2.025-.19-1.897-.395.113-.184.13-.334.04-.334s-.26.15-.374.336m-11 .332c-.786.192-.626.236.75.205.963-.022 1.75-.12 1.75-.217 0-.27-1.376-.263-2.5.012m3.018.028c.104.167.58.304 1.058.304 1.066 0 .766-.387-.4-.515-.465-.05-.76.044-.658.21m13.566.214c.687.072 1.812.072 2.5 0s.125-.13-1.25-.13-1.938.06-1.25.13m-105.006 1.1c0 .642.068.904.152.584s.084-.846 0-1.167-.152-.058-.152.583m121.84-.764a4.78 4.78 0 0 0 1.5 0c.412-.08.075-.145-.75-.145s-1.163.065-.75.145m-112.234 3.264c.034.184.026.446-.018.584s-.107.437-.138.666-.242.378-.468.33-.497.14-.603.414-.35.404-.542.285c-.22-.135-.25-.053-.08.22.214.346.35.323.668-.1.22-.3.484-.46.59-.355s.45-.205.767-.69c.452-.69.49-.964.17-1.278-.224-.22-.378-.25-.343-.067m-109.274.395c.51.134.587.776.675 5.712l.1 5.56.15-11.5-.75.04c-.552.028-.598.078-.175.19m23.512.008c.415.08 1.015.076 1.333-.007s-.02-.15-.754-.145-.994.072-.58.152m22.227.194c-.09.237-.123 2.824-.072 5.75l.093 5.32.166-5.75c.162-5.65.144-6.182-.187-5.32M925 0h20v20h-20zm430 0h20v20h-20z" fill="#2c4c64"/></svg>